<?xml version="1.0" encoding="UTF-8" standalone="no"?>
<svg width="357px" height="47px" viewBox="0 0 357 47" version="1.1" xmlns="http://www.w3.org/2000/svg" xmlns:xlink="http://www.w3.org/1999/xlink" xmlns:sketch="http://www.bohemiancoding.com/sketch/ns">
    <!-- Generator: Sketch 3.0.4 (8053) - http://www.bohemiancoding.com/sketch -->
    <title>aqueduct_logo_4c</title>
    <desc>Created with Sketch.</desc>
    <defs></defs>
    <g id="Page-1" stroke="none" stroke-width="1" fill="none" fill-rule="evenodd" sketch:type="MSPage">
        <g id="aqueduct_logo_4c" sketch:type="MSLayerGroup" transform="translate(0.000000, 1.000000)">
            <path d="M35.139,15.188 L38.399,15.188 L38.399,11.23 C38.399,11.23 39.268,4.792 45.347,4.657 C51.428,4.792 52.297,11.23 52.297,11.23 L52.297,15.187 L55.481,15.187 L55.481,11.23 C55.481,11.23 56.348,4.792 62.428,4.657 L62.428,-0.258 L11.086,-0.258 L11.086,4.657 C17.165,4.792 18.034,11.23 18.034,11.23 L18.034,15.187 L21.219,15.187 L21.219,11.23 C21.219,11.23 22.087,4.792 28.167,4.657 C34.246,4.792 35.115,11.23 35.115,11.23 L35.115,15.187 L35.139,15.187" id="Shape" fill="#0092C3" sketch:type="MSShapeGroup"></path>
            <path d="M70.813,15.188 L2.701,15.188 L2.701,18.579 C8.508,18.677 9.338,23.438 9.338,23.438 L9.338,26.364 L13.288,26.364 L13.288,23.438 C13.288,23.438 14.118,18.676 19.926,18.579 C25.733,18.677 26.564,23.438 26.564,23.438 L26.564,26.364 L30.119,26.364 L30.119,23.438 C30.119,23.438 30.949,18.676 36.756,18.579 C42.566,18.677 43.395,23.438 43.395,23.438 L43.395,26.364 L46.95,26.364 L46.95,23.438 C46.95,23.438 47.781,18.676 53.589,18.579 C59.397,18.677 60.227,23.438 60.227,23.438 L60.227,26.364 L64.176,26.364 L64.176,23.438 C64.176,23.438 65.005,18.676 70.813,18.579 L70.813,15.188" id="Shape" fill="#0092C3" sketch:type="MSShapeGroup"></path>
            <path d="M73.055,26.363 L73.055,29.269 C68.102,29.354 67.395,33.439 67.395,33.439 L67.395,35.948 L64.028,35.948 L64.028,33.439 C64.028,33.439 63.32,29.354 58.369,29.269 C53.417,29.354 52.709,33.439 52.709,33.439 L52.709,35.948 L49.343,35.948 L49.343,33.439 C49.343,33.439 48.636,29.354 43.683,29.269 C38.733,29.354 38.024,33.439 38.024,33.439 L38.024,35.948 L34.993,35.948 L34.993,33.439 C34.993,33.439 34.285,29.354 29.332,29.269 C24.381,29.354 23.674,33.439 23.674,33.439 L23.674,35.948 L20.643,35.948 L20.643,33.439 C20.643,33.439 19.934,29.354 14.984,29.269 C10.032,29.354 9.325,33.439 9.325,33.439 L9.325,35.948 L5.956,35.948 L5.956,33.439 C5.956,33.439 5.247,29.354 0.297,29.269 L0.297,26.363 L73.055,26.363" id="Shape" fill="#0092C3" sketch:type="MSShapeGroup"></path>
            <path d="M100.487,1.497 C101.007,-0.048 101.181,-0.328 101.441,-0.328 C101.7,-0.328 101.874,-0.094 102.394,1.357 C103.044,3.135 109.848,22.463 112.491,29.577 C114.051,33.742 115.308,34.491 116.218,34.771 C116.868,35.005 117.518,35.052 117.951,35.052 C118.211,35.052 118.384,35.099 118.384,35.333 C118.384,35.613 117.994,35.708 117.518,35.708 C116.868,35.708 113.704,35.708 110.714,35.613 C109.891,35.566 109.414,35.566 109.414,35.285 C109.414,35.098 109.544,35.005 109.717,34.959 C109.978,34.864 110.237,34.443 109.978,33.694 L105.947,22.181 C105.86,21.994 105.774,21.901 105.557,21.901 L96.24,21.901 C96.024,21.901 95.894,22.043 95.807,22.275 L93.207,30.558 C92.817,31.728 92.6,32.852 92.6,33.694 C92.6,34.631 93.51,35.051 94.247,35.051 L94.68,35.051 C94.983,35.051 95.113,35.145 95.113,35.332 C95.113,35.612 94.854,35.707 94.463,35.707 C93.423,35.707 91.56,35.565 91.084,35.565 C90.607,35.565 88.223,35.707 86.187,35.707 C85.623,35.707 85.363,35.612 85.363,35.332 C85.363,35.144 85.537,35.051 85.753,35.051 C86.057,35.051 86.663,35.004 87.01,34.958 C89.003,34.676 89.87,32.897 90.65,30.558 L100.487,1.497 L100.487,1.497 Z M104.994,20.217 C105.211,20.217 105.211,20.076 105.167,19.889 L101.05,7.253 C100.834,6.551 100.617,6.551 100.401,7.253 L96.587,19.889 C96.5,20.123 96.587,20.217 96.717,20.217 L104.994,20.217 L104.994,20.217 Z" id="Shape" fill="#221E1F" sketch:type="MSShapeGroup"></path>
            <path d="M104.994,20.217 C105.211,20.217 105.211,20.076 105.167,19.889 L101.05,7.253 C100.834,6.551 100.617,6.551 100.401,7.253 L96.587,19.889 C96.5,20.123 96.587,20.217 96.717,20.217 L104.994,20.217 L104.994,20.217 Z" id="Shape" stroke="#221E1F" stroke-width="0.75" sketch:type="MSShapeGroup"></path>
            <path d="M100.487,1.497 C101.007,-0.048 101.181,-0.328 101.441,-0.328 C101.7,-0.328 101.874,-0.094 102.394,1.357 C103.044,3.135 109.848,22.463 112.491,29.577 C114.051,33.742 115.308,34.491 116.218,34.771 C116.868,35.005 117.518,35.052 117.951,35.052 C118.211,35.052 118.384,35.099 118.384,35.333 C118.384,35.613 117.994,35.708 117.518,35.708 C116.868,35.708 113.704,35.708 110.714,35.613 C109.891,35.566 109.414,35.566 109.414,35.285 C109.414,35.098 109.544,35.005 109.717,34.959 C109.978,34.864 110.237,34.443 109.978,33.694 L105.947,22.181 C105.86,21.994 105.774,21.901 105.557,21.901 L96.24,21.901 C96.024,21.901 95.894,22.043 95.807,22.275 L93.207,30.558 C92.817,31.728 92.6,32.852 92.6,33.694 C92.6,34.631 93.51,35.051 94.247,35.051 L94.68,35.051 C94.983,35.051 95.113,35.145 95.113,35.332 C95.113,35.612 94.854,35.707 94.463,35.707 C93.424,35.707 91.56,35.565 91.084,35.565 C90.607,35.565 88.223,35.707 86.187,35.707 C85.623,35.707 85.363,35.612 85.363,35.332 C85.363,35.144 85.537,35.051 85.753,35.051 C86.057,35.051 86.663,35.004 87.01,34.958 C89.003,34.676 89.87,32.897 90.65,30.558 L100.487,1.497 L100.487,1.497 Z" id="Shape" stroke="#221E1F" stroke-width="0.75" sketch:type="MSShapeGroup"></path>
            <path d="M143.387,34.771 C141.827,35.661 138.88,36.363 136.583,36.363 C124.579,36.363 119.639,26.394 119.639,17.97 C119.639,10.389 124.753,-0.328 136.713,-0.328 C146.464,-0.328 153.744,6.364 153.744,17.222 C153.744,25.459 148.934,30.934 146.073,32.946 L154.957,37.907 C164.447,43.195 171.034,43.429 173.201,43.429 C175.368,43.429 178.748,42.914 181.738,41.604 C181.998,41.51 182.215,41.417 182.345,41.417 C182.519,41.417 182.606,41.557 182.606,41.697 C182.606,41.884 182.519,42.024 182.259,42.166 C179.788,43.382 174.935,45.395 168.521,45.395 C163.277,45.395 157.688,43.335 150.667,39.124 L143.387,34.771 L143.387,34.771 Z M137.623,34.584 C141.524,34.584 149.584,32.15 149.584,18.531 C149.584,7.3 143.257,1.262 136.41,1.262 C129.173,1.262 123.756,6.41 123.756,16.659 C123.756,27.563 129.823,34.584 137.623,34.584 L137.623,34.584 Z" id="Shape" fill="#221E1F" sketch:type="MSShapeGroup"></path>
            <path d="M137.623,34.584 C141.524,34.584 149.584,32.15 149.584,18.531 C149.584,7.3 143.257,1.262 136.41,1.262 C129.173,1.262 123.756,6.41 123.756,16.659 C123.756,27.563 129.823,34.584 137.623,34.584 L137.623,34.584 Z" id="Shape" stroke="#221E1F" stroke-width="0.75" sketch:type="MSShapeGroup"></path>
            <path d="M143.387,34.771 C141.827,35.661 138.88,36.363 136.583,36.363 C124.579,36.363 119.639,26.394 119.639,17.97 C119.639,10.389 124.753,-0.328 136.713,-0.328 C146.464,-0.328 153.744,6.364 153.744,17.222 C153.744,25.459 148.934,30.934 146.073,32.946 L154.957,37.907 C164.447,43.195 171.034,43.429 173.201,43.429 C175.368,43.429 178.748,42.914 181.738,41.604 C181.998,41.51 182.215,41.417 182.345,41.417 C182.519,41.417 182.606,41.557 182.606,41.697 C182.606,41.884 182.519,42.024 182.259,42.166 C179.788,43.382 174.935,45.395 168.521,45.395 C163.277,45.395 157.688,43.335 150.667,39.124 L143.387,34.771 L143.387,34.771 Z" id="Shape" stroke="#221E1F" stroke-width="0.75" sketch:type="MSShapeGroup"></path>
            <path d="M161.931,13.898 C161.931,6.597 161.931,5.288 161.845,3.791 C161.758,2.199 161.411,1.45 159.981,1.122 C159.634,1.029 158.898,0.982 158.508,0.982 C158.335,0.982 158.161,0.888 158.161,0.701 C158.161,0.421 158.378,0.327 158.855,0.327 C160.805,0.327 163.448,0.468 163.838,0.468 C164.228,0.468 166.828,0.327 168.128,0.327 C168.605,0.327 168.821,0.421 168.821,0.701 C168.821,0.889 168.648,0.982 168.475,0.982 C168.172,0.982 167.911,1.029 167.392,1.122 C166.221,1.31 165.875,2.152 165.788,3.791 C165.701,5.288 165.701,6.598 165.701,13.898 L165.701,20.45 C165.701,27.189 167.088,30.091 168.951,32.01 C171.075,34.162 173.025,34.584 175.495,34.584 C178.139,34.584 180.738,33.227 182.299,31.214 C184.292,28.547 184.813,24.568 184.813,19.748 L184.813,13.898 C184.813,6.597 184.813,5.288 184.726,3.791 C184.639,2.199 184.292,1.45 182.862,1.122 C182.516,1.029 181.778,0.982 181.389,0.982 C181.216,0.982 181.042,0.888 181.042,0.701 C181.042,0.421 181.259,0.327 181.735,0.327 C183.686,0.327 186.069,0.468 186.329,0.468 C186.632,0.468 188.669,0.327 189.969,0.327 C190.446,0.327 190.662,0.421 190.662,0.701 C190.662,0.889 190.489,0.982 190.315,0.982 C190.012,0.982 189.752,1.029 189.232,1.122 C188.062,1.403 187.715,2.152 187.628,3.791 C187.541,5.288 187.541,6.598 187.541,13.898 L187.541,18.906 C187.541,23.96 187.021,29.576 183.555,32.898 C180.435,35.893 177.184,36.362 174.628,36.362 C173.154,36.362 168.777,36.174 165.7,33.039 C163.577,30.84 161.93,27.563 161.93,20.731 L161.93,13.898" id="Shape" fill="#221E1F" sketch:type="MSShapeGroup"></path>
            <path d="M161.931,13.898 C161.931,6.597 161.931,5.288 161.845,3.791 C161.758,2.199 161.411,1.45 159.981,1.122 C159.634,1.029 158.898,0.982 158.508,0.982 C158.335,0.982 158.161,0.888 158.161,0.701 C158.161,0.421 158.378,0.327 158.855,0.327 C160.805,0.327 163.448,0.468 163.838,0.468 C164.228,0.468 166.828,0.327 168.128,0.327 C168.605,0.327 168.821,0.421 168.821,0.701 C168.821,0.889 168.648,0.982 168.475,0.982 C168.172,0.982 167.911,1.029 167.392,1.122 C166.221,1.31 165.875,2.152 165.788,3.791 C165.701,5.288 165.701,6.598 165.701,13.898 L165.701,20.45 C165.701,27.189 167.088,30.091 168.951,32.01 C171.075,34.162 173.025,34.584 175.495,34.584 C178.139,34.584 180.738,33.227 182.299,31.214 C184.292,28.547 184.813,24.568 184.813,19.748 L184.813,13.898 C184.813,6.597 184.813,5.288 184.726,3.791 C184.639,2.199 184.292,1.45 182.862,1.122 C182.516,1.029 181.778,0.982 181.389,0.982 C181.216,0.982 181.042,0.888 181.042,0.701 C181.042,0.421 181.259,0.327 181.735,0.327 C183.686,0.327 186.069,0.468 186.329,0.468 C186.632,0.468 188.669,0.327 189.969,0.327 C190.446,0.327 190.662,0.421 190.662,0.701 C190.662,0.889 190.489,0.982 190.315,0.982 C190.012,0.982 189.752,1.029 189.232,1.122 C188.062,1.403 187.715,2.152 187.628,3.791 C187.541,5.288 187.541,6.598 187.541,13.898 L187.541,18.906 C187.541,23.96 187.021,29.576 183.555,32.898 C180.435,35.893 177.184,36.362 174.628,36.362 C173.154,36.362 168.777,36.174 165.7,33.039 C163.577,30.84 161.93,27.563 161.93,20.731 L161.93,13.898 L161.931,13.898 Z" id="Shape" stroke="#221E1F" stroke-width="0.75" sketch:type="MSShapeGroup"></path>
            <path d="M199.543,13.898 C199.543,6.597 199.543,5.288 199.456,3.791 C199.37,2.199 199.023,1.45 197.594,1.122 C197.247,1.029 196.51,0.982 196.12,0.982 C195.946,0.982 195.773,0.888 195.773,0.701 C195.773,0.421 195.99,0.327 196.466,0.327 C197.462,0.327 198.632,0.327 199.586,0.375 L201.362,0.468 C201.666,0.468 210.289,0.468 211.286,0.421 C212.108,0.375 212.803,0.28 213.149,0.187 C213.366,0.14 213.539,-0.047 213.755,-0.047 C213.885,-0.047 213.929,0.141 213.929,0.376 C213.929,0.702 213.712,1.264 213.582,2.574 C213.538,3.043 213.452,5.101 213.365,5.663 C213.321,5.897 213.235,6.178 213.061,6.178 C212.801,6.178 212.714,5.944 212.714,5.57 C212.714,5.243 212.671,4.447 212.454,3.885 C212.15,3.136 211.718,2.574 209.377,2.294 C208.641,2.2 203.917,2.153 203.44,2.153 C203.267,2.153 203.18,2.294 203.18,2.621 L203.18,15.537 C203.18,15.865 203.223,16.006 203.44,16.006 C204.003,16.006 209.334,16.006 210.331,15.912 C211.371,15.818 211.977,15.724 212.367,15.257 C212.671,14.883 212.844,14.649 213.017,14.649 C213.147,14.649 213.234,14.743 213.234,15.023 C213.234,15.304 213.017,16.1 212.887,17.644 C212.8,18.58 212.713,20.311 212.713,20.639 C212.713,21.013 212.713,21.528 212.41,21.528 C212.193,21.528 212.105,21.341 212.105,21.107 C212.105,20.639 212.105,20.171 211.932,19.563 C211.759,18.908 211.369,18.112 209.679,17.924 C208.509,17.784 204.219,17.691 203.482,17.691 C203.266,17.691 203.179,17.832 203.179,18.018 L203.179,22.136 C203.179,23.728 203.135,29.157 203.179,30.139 C203.309,33.368 203.959,33.977 208.205,33.977 C209.332,33.977 211.238,33.977 212.365,33.462 C213.492,32.946 214.011,32.011 214.315,30.092 C214.402,29.577 214.489,29.39 214.705,29.39 C214.966,29.39 214.966,29.765 214.966,30.092 C214.966,30.467 214.619,33.649 214.403,34.632 C214.099,35.849 213.753,35.849 212.064,35.849 C208.814,35.849 206.429,35.755 204.739,35.709 C203.05,35.614 202.01,35.567 201.359,35.567 C201.271,35.567 200.536,35.567 199.626,35.614 C198.759,35.614 197.763,35.709 197.112,35.709 C196.635,35.709 196.419,35.614 196.419,35.334 C196.419,35.193 196.506,35.053 196.766,35.053 C197.157,35.053 197.676,34.96 198.066,34.865 C198.933,34.677 199.15,33.648 199.323,32.292 C199.54,30.326 199.54,26.629 199.54,22.136 L199.54,13.898" id="Shape" fill="#221E1F" sketch:type="MSShapeGroup"></path>
            <path d="M199.543,13.898 C199.543,6.597 199.543,5.288 199.456,3.791 C199.37,2.199 199.023,1.45 197.594,1.122 C197.247,1.029 196.51,0.982 196.12,0.982 C195.946,0.982 195.773,0.888 195.773,0.701 C195.773,0.421 195.99,0.327 196.466,0.327 C197.462,0.327 198.632,0.327 199.586,0.375 L201.362,0.468 C201.666,0.468 210.289,0.468 211.286,0.421 C212.108,0.375 212.803,0.28 213.149,0.187 C213.366,0.14 213.539,-0.047 213.755,-0.047 C213.885,-0.047 213.929,0.141 213.929,0.376 C213.929,0.702 213.712,1.264 213.582,2.574 C213.538,3.043 213.452,5.101 213.365,5.663 C213.321,5.897 213.235,6.178 213.061,6.178 C212.801,6.178 212.714,5.944 212.714,5.57 C212.714,5.243 212.671,4.447 212.454,3.885 C212.15,3.136 211.718,2.574 209.377,2.294 C208.641,2.2 203.917,2.153 203.44,2.153 C203.267,2.153 203.18,2.294 203.18,2.621 L203.18,15.537 C203.18,15.865 203.223,16.006 203.44,16.006 C204.003,16.006 209.334,16.006 210.331,15.912 C211.371,15.818 211.977,15.724 212.367,15.257 C212.671,14.883 212.844,14.649 213.017,14.649 C213.147,14.649 213.234,14.743 213.234,15.023 C213.234,15.304 213.017,16.1 212.887,17.644 C212.8,18.58 212.713,20.311 212.713,20.639 C212.713,21.013 212.713,21.528 212.41,21.528 C212.193,21.528 212.105,21.341 212.105,21.107 C212.105,20.639 212.105,20.171 211.932,19.563 C211.759,18.908 211.369,18.112 209.679,17.924 C208.509,17.784 204.219,17.691 203.482,17.691 C203.266,17.691 203.179,17.832 203.179,18.018 L203.179,22.136 C203.179,23.728 203.135,29.157 203.179,30.139 C203.309,33.368 203.959,33.977 208.205,33.977 C209.332,33.977 211.238,33.977 212.365,33.462 C213.492,32.946 214.011,32.011 214.315,30.092 C214.402,29.577 214.489,29.39 214.705,29.39 C214.966,29.39 214.966,29.765 214.966,30.092 C214.966,30.467 214.619,33.649 214.403,34.632 C214.099,35.849 213.753,35.849 212.064,35.849 C208.814,35.849 206.429,35.755 204.739,35.709 C203.05,35.614 202.01,35.567 201.359,35.567 C201.271,35.567 200.536,35.567 199.626,35.614 C198.759,35.614 197.763,35.709 197.112,35.709 C196.635,35.709 196.419,35.614 196.419,35.334 C196.419,35.193 196.506,35.053 196.766,35.053 C197.157,35.053 197.676,34.96 198.066,34.865 C198.933,34.677 199.15,33.648 199.323,32.292 C199.54,30.326 199.54,26.629 199.54,22.136 L199.54,13.898 L199.543,13.898 Z" id="Shape" stroke="#221E1F" stroke-width="0.75" sketch:type="MSShapeGroup"></path>
            <path d="M225.976,13.898 C225.976,6.597 225.976,5.288 225.889,3.791 C225.802,2.199 225.455,1.45 224.026,1.122 C223.679,1.029 222.943,0.982 222.552,0.982 C222.379,0.982 222.205,0.888 222.205,0.701 C222.205,0.421 222.422,0.327 222.898,0.327 C224.848,0.327 227.579,0.468 227.795,0.468 C228.315,0.468 231.045,0.327 233.645,0.327 C237.935,0.327 245.866,-0.094 251.022,5.662 C253.189,8.096 255.226,11.979 255.226,17.549 C255.226,23.445 252.972,27.986 250.545,30.746 C248.682,32.852 244.781,36.128 237.415,36.128 C235.552,36.128 233.255,35.987 231.392,35.848 C229.484,35.708 228.011,35.567 227.795,35.567 C227.708,35.567 226.971,35.567 226.061,35.614 C225.195,35.614 224.198,35.709 223.548,35.709 C223.071,35.709 222.855,35.614 222.855,35.334 C222.855,35.193 222.942,35.053 223.202,35.053 C223.592,35.053 224.112,34.96 224.502,34.865 C225.368,34.677 225.585,33.648 225.759,32.292 C225.976,30.326 225.976,26.629 225.976,22.136 L225.976,13.898 L225.976,13.898 Z M229.615,18.953 C229.615,23.913 229.659,28.219 229.702,29.108 C229.745,30.278 229.832,32.15 230.179,32.666 C230.742,33.554 232.433,34.537 237.546,34.537 C241.576,34.537 245.303,32.945 247.859,30.184 C250.113,27.797 251.326,23.304 251.326,19 C251.326,13.056 248.942,9.218 247.166,7.205 C243.093,2.572 238.152,1.917 232.995,1.917 C232.129,1.917 230.525,2.058 230.179,2.245 C229.789,2.432 229.659,2.667 229.659,3.181 C229.615,4.772 229.615,9.545 229.615,13.149 L229.615,18.953 L229.615,18.953 Z" id="Shape" fill="#221E1F" sketch:type="MSShapeGroup"></path>
            <path d="M229.615,18.953 C229.615,23.913 229.659,28.219 229.702,29.108 C229.745,30.278 229.832,32.15 230.179,32.666 C230.742,33.554 232.433,34.537 237.546,34.537 C241.576,34.537 245.303,32.945 247.859,30.184 C250.113,27.797 251.326,23.304 251.326,19 C251.326,13.056 248.942,9.218 247.166,7.205 C243.093,2.572 238.152,1.917 232.995,1.917 C232.129,1.917 230.525,2.058 230.179,2.245 C229.789,2.432 229.659,2.667 229.659,3.181 C229.615,4.772 229.615,9.545 229.615,13.149 L229.615,18.953 L229.615,18.953 Z" id="Shape" stroke="#221E1F" stroke-width="0.75" sketch:type="MSShapeGroup"></path>
            <path d="M225.976,13.898 C225.976,6.597 225.976,5.288 225.889,3.791 C225.802,2.199 225.455,1.45 224.026,1.122 C223.679,1.029 222.943,0.982 222.552,0.982 C222.379,0.982 222.205,0.888 222.205,0.701 C222.205,0.421 222.422,0.327 222.898,0.327 C224.848,0.327 227.579,0.468 227.795,0.468 C228.315,0.468 231.045,0.327 233.645,0.327 C237.935,0.327 245.866,-0.094 251.022,5.662 C253.189,8.096 255.226,11.979 255.226,17.549 C255.226,23.445 252.972,27.986 250.545,30.746 C248.682,32.852 244.781,36.128 237.415,36.128 C235.552,36.128 233.255,35.987 231.392,35.848 C229.484,35.708 228.011,35.567 227.795,35.567 C227.708,35.567 226.971,35.567 226.061,35.614 C225.195,35.614 224.198,35.709 223.548,35.709 C223.071,35.709 222.855,35.614 222.855,35.334 C222.855,35.193 222.942,35.053 223.202,35.053 C223.592,35.053 224.112,34.96 224.502,34.865 C225.368,34.677 225.585,33.648 225.759,32.292 C225.976,30.326 225.976,26.629 225.976,22.136 L225.976,13.898 L225.976,13.898 Z" id="Shape" stroke="#221E1F" stroke-width="0.75" sketch:type="MSShapeGroup"></path>
            <path d="M263.196,13.898 C263.196,6.597 263.196,5.288 263.109,3.791 C263.022,2.199 262.676,1.45 261.246,1.122 C260.899,1.029 260.163,0.982 259.772,0.982 C259.599,0.982 259.425,0.888 259.425,0.701 C259.425,0.421 259.642,0.327 260.118,0.327 C262.067,0.327 264.712,0.468 265.101,0.468 C265.492,0.468 268.091,0.327 269.392,0.327 C269.869,0.327 270.085,0.421 270.085,0.701 C270.085,0.889 269.911,0.982 269.738,0.982 C269.434,0.982 269.175,1.029 268.654,1.122 C267.484,1.31 267.137,2.152 267.05,3.791 C266.964,5.288 266.964,6.598 266.964,13.898 L266.964,20.45 C266.964,27.189 268.351,30.091 270.214,32.01 C272.337,34.162 274.287,34.584 276.757,34.584 C279.401,34.584 282.001,33.227 283.561,31.214 C285.555,28.547 286.075,24.568 286.075,19.748 L286.075,13.898 C286.075,6.597 286.075,5.288 285.988,3.791 C285.901,2.199 285.555,1.45 284.125,1.122 C283.778,1.029 283.042,0.982 282.651,0.982 C282.478,0.982 282.304,0.888 282.304,0.701 C282.304,0.421 282.521,0.327 282.997,0.327 C284.947,0.327 287.331,0.468 287.591,0.468 C287.895,0.468 289.931,0.327 291.232,0.327 C291.709,0.327 291.925,0.421 291.925,0.701 C291.925,0.889 291.751,0.982 291.578,0.982 C291.274,0.982 291.015,1.029 290.494,1.122 C289.324,1.403 288.977,2.152 288.89,3.791 C288.804,5.288 288.804,6.598 288.804,13.898 L288.804,18.906 C288.804,23.96 288.283,29.576 284.817,32.898 C281.697,35.893 278.447,36.362 275.89,36.362 C274.416,36.362 270.039,36.174 266.963,33.039 C264.839,30.84 263.192,27.563 263.192,20.731 L263.192,13.898" id="Shape" fill="#221E1F" sketch:type="MSShapeGroup"></path>
            <path d="M263.196,13.898 C263.196,6.597 263.196,5.288 263.109,3.791 C263.022,2.199 262.676,1.45 261.246,1.122 C260.899,1.029 260.163,0.982 259.772,0.982 C259.599,0.982 259.425,0.888 259.425,0.701 C259.425,0.421 259.642,0.327 260.118,0.327 C262.067,0.327 264.712,0.468 265.101,0.468 C265.492,0.468 268.091,0.327 269.392,0.327 C269.869,0.327 270.085,0.421 270.085,0.701 C270.085,0.889 269.911,0.982 269.738,0.982 C269.434,0.982 269.175,1.029 268.654,1.122 C267.484,1.31 267.137,2.152 267.05,3.791 C266.964,5.288 266.964,6.598 266.964,13.898 L266.964,20.45 C266.964,27.189 268.351,30.091 270.214,32.01 C272.337,34.162 274.287,34.584 276.757,34.584 C279.401,34.584 282.001,33.227 283.561,31.214 C285.555,28.547 286.075,24.568 286.075,19.748 L286.075,13.898 C286.075,6.597 286.075,5.288 285.988,3.791 C285.901,2.199 285.555,1.45 284.125,1.122 C283.778,1.029 283.042,0.982 282.651,0.982 C282.478,0.982 282.304,0.888 282.304,0.701 C282.304,0.421 282.521,0.327 282.997,0.327 C284.947,0.327 287.331,0.468 287.591,0.468 C287.895,0.468 289.931,0.327 291.232,0.327 C291.709,0.327 291.925,0.421 291.925,0.701 C291.925,0.889 291.751,0.982 291.578,0.982 C291.274,0.982 291.015,1.029 290.494,1.122 C289.324,1.403 288.977,2.152 288.89,3.791 C288.804,5.288 288.804,6.598 288.804,13.898 L288.804,18.906 C288.804,23.96 288.283,29.576 284.817,32.898 C281.697,35.893 278.447,36.362 275.89,36.362 C274.416,36.362 270.039,36.174 266.963,33.039 C264.839,30.84 263.192,27.563 263.192,20.731 L263.192,13.898 L263.196,13.898 Z" id="Shape" stroke="#221E1F" stroke-width="0.75" sketch:type="MSShapeGroup"></path>
            <path d="M301.111,31.308 C296.908,27.237 295.868,21.902 295.868,17.455 C295.868,14.319 296.865,8.845 300.722,4.68 C303.322,1.871 307.266,-0.328 313.939,-0.328 C315.672,-0.328 318.099,-0.187 320.223,0.234 C321.869,0.561 323.256,0.842 324.643,0.936 C325.12,0.983 325.206,1.169 325.206,1.451 C325.206,1.825 325.076,2.387 324.989,4.072 C324.902,5.616 324.902,8.19 324.859,8.892 C324.815,9.593 324.729,9.875 324.469,9.875 C324.165,9.875 324.121,9.546 324.121,8.892 C324.121,7.067 323.428,5.148 322.302,4.119 C320.785,2.715 317.448,1.451 313.635,1.451 C307.871,1.451 305.185,3.276 303.668,4.867 C300.504,8.143 299.768,12.308 299.768,17.082 C299.768,26.02 306.138,34.21 315.412,34.21 C318.662,34.21 321.219,33.789 322.952,31.87 C323.862,30.841 324.426,28.781 324.556,27.939 C324.643,27.424 324.73,27.237 324.99,27.237 C325.207,27.237 325.294,27.564 325.294,27.939 C325.294,28.266 324.773,32.337 324.34,33.929 C324.08,34.818 323.993,34.911 323.214,35.285 C321.481,36.034 318.187,36.362 315.413,36.362 C308.912,36.362 304.535,34.631 301.111,31.308" id="Shape" fill="#221E1F" sketch:type="MSShapeGroup"></path>
            <path d="M301.111,31.308 C296.908,27.237 295.868,21.902 295.868,17.455 C295.868,14.319 296.865,8.845 300.722,4.68 C303.322,1.871 307.266,-0.328 313.939,-0.328 C315.672,-0.328 318.099,-0.187 320.223,0.234 C321.869,0.561 323.256,0.842 324.643,0.936 C325.12,0.983 325.206,1.169 325.206,1.451 C325.206,1.825 325.076,2.387 324.989,4.072 C324.902,5.616 324.902,8.19 324.859,8.892 C324.815,9.593 324.729,9.875 324.469,9.875 C324.165,9.875 324.121,9.546 324.121,8.892 C324.121,7.067 323.428,5.148 322.302,4.119 C320.785,2.715 317.448,1.451 313.635,1.451 C307.871,1.451 305.185,3.276 303.668,4.867 C300.504,8.143 299.768,12.308 299.768,17.082 C299.768,26.02 306.138,34.21 315.412,34.21 C318.662,34.21 321.219,33.789 322.952,31.87 C323.862,30.841 324.426,28.781 324.556,27.939 C324.643,27.424 324.73,27.237 324.99,27.237 C325.207,27.237 325.294,27.564 325.294,27.939 C325.294,28.266 324.773,32.337 324.34,33.929 C324.08,34.818 323.993,34.911 323.214,35.285 C321.481,36.034 318.187,36.362 315.413,36.362 C308.912,36.362 304.535,34.631 301.111,31.308 L301.111,31.308 Z" id="Shape" stroke="#221E1F" stroke-width="0.75" sketch:type="MSShapeGroup"></path>
            <path d="M344.705,22.135 C344.705,26.628 344.705,30.325 344.921,32.291 C345.052,33.647 345.312,34.677 346.611,34.864 C347.217,34.959 348.172,35.052 348.561,35.052 C348.821,35.052 348.908,35.193 348.908,35.333 C348.908,35.566 348.691,35.708 348.215,35.708 C345.831,35.708 343.102,35.566 342.885,35.566 C342.668,35.566 339.938,35.708 338.638,35.708 C338.161,35.708 337.944,35.613 337.944,35.333 C337.944,35.192 338.032,35.052 338.292,35.052 C338.682,35.052 339.202,34.959 339.592,34.864 C340.459,34.676 340.676,33.647 340.849,32.291 C341.066,30.325 341.066,26.628 341.066,22.135 L341.066,2.339 L334.652,2.433 C331.965,2.48 330.925,2.808 330.232,3.931 C329.755,4.726 329.626,5.054 329.496,5.381 C329.366,5.756 329.236,5.85 329.062,5.85 C328.932,5.85 328.845,5.709 328.845,5.428 C328.845,4.96 329.712,0.936 329.799,0.561 C329.885,0.281 330.059,-0.328 330.232,-0.328 C330.536,-0.328 330.969,0.14 332.139,0.234 C333.396,0.376 335.042,0.468 335.563,0.468 L351.813,0.468 C353.2,0.468 354.197,0.375 354.89,0.234 C355.539,0.14 355.93,0.001 356.103,0.001 C356.319,0.001 356.319,0.281 356.319,0.562 C356.319,1.966 356.19,5.196 356.19,5.71 C356.19,6.131 356.06,6.318 355.886,6.318 C355.67,6.318 355.583,6.177 355.539,5.522 L355.496,5.007 C355.366,3.603 354.326,2.527 350.166,2.433 L344.706,2.339 L344.706,22.135" id="Shape" fill="#221E1F" sketch:type="MSShapeGroup"></path>
            <path d="M344.705,22.135 C344.705,26.628 344.705,30.325 344.921,32.291 C345.052,33.647 345.312,34.677 346.611,34.864 C347.217,34.959 348.172,35.052 348.561,35.052 C348.821,35.052 348.908,35.193 348.908,35.333 C348.908,35.566 348.691,35.708 348.215,35.708 C345.831,35.708 343.102,35.566 342.885,35.566 C342.668,35.566 339.938,35.708 338.638,35.708 C338.161,35.708 337.944,35.613 337.944,35.333 C337.944,35.192 338.032,35.052 338.292,35.052 C338.682,35.052 339.202,34.959 339.592,34.864 C340.459,34.676 340.676,33.647 340.849,32.291 C341.066,30.325 341.066,26.628 341.066,22.135 L341.066,2.339 L334.652,2.433 C331.965,2.48 330.925,2.808 330.232,3.931 C329.755,4.726 329.626,5.054 329.496,5.381 C329.366,5.756 329.236,5.85 329.062,5.85 C328.932,5.85 328.845,5.709 328.845,5.428 C328.845,4.96 329.712,0.936 329.799,0.561 C329.885,0.281 330.059,-0.328 330.232,-0.328 C330.536,-0.328 330.969,0.14 332.139,0.234 C333.396,0.376 335.042,0.468 335.563,0.468 L351.813,0.468 C353.2,0.468 354.197,0.375 354.89,0.234 C355.539,0.14 355.93,0.001 356.103,0.001 C356.319,0.001 356.319,0.281 356.319,0.562 C356.319,1.966 356.19,5.196 356.19,5.71 C356.19,6.131 356.06,6.318 355.886,6.318 C355.67,6.318 355.583,6.177 355.539,5.522 L355.496,5.007 C355.366,3.603 354.326,2.527 350.166,2.433 L344.706,2.339 L344.706,22.135 L344.705,22.135 Z" id="Shape" stroke="#221E1F" stroke-width="0.75" sketch:type="MSShapeGroup"></path>
        </g>
    </g>
</svg>