<?xml version="1.0" encoding="utf-8"?>
<!-- Generator: Adobe Illustrator 16.0.0, SVG Export Plug-In . SVG Version: 6.00 Build 0)  -->
<svg version="1.2" baseProfile="tiny" id="Layer_1" xmlns="http://www.w3.org/2000/svg" xmlns:xlink="http://www.w3.org/1999/xlink"
	 x="0px" y="0px" width="505.488px" height="41.388px" viewBox="0 0 505.488 41.388" xml:space="preserve">
<g>
	<g>
		
			<rect x="6.495" y="8.304" transform="matrix(0.7073 -0.707 0.707 0.7073 -7.8621 9.9655)" fill="#FDB913" width="3.214" height="12.345"/>
		<polygon fill="#FDB913" points="15.106,23.745 23.792,32.43 26.066,30.155 17.381,21.469 16.874,21.976 		"/>
		<polygon fill="#FDB913" points="32.095,36.184 29.484,33.565 27.202,35.84 29.819,38.459 		"/>
		<polygon fill="#FDB913" points="8.721,5.261 11.34,7.88 13.615,5.604 11,2.986 		"/>
		
			<rect x="18.794" y="8.212" transform="matrix(0.7069 -0.7073 0.7073 0.7069 -4.1397 18.6247)" fill="#FDB913" width="3.215" height="12.19"/>
		
			<rect x="26.685" y="25.159" transform="matrix(-0.7072 -0.707 0.707 -0.7072 37.1771 68.9282)" fill="#FDB913" width="12.351" height="3.215"/>
		<polygon fill="#FDB913" points="17.561,14.97 14.828,17.703 14.836,17.711 11.337,21.21 11.329,21.202 8.74,23.792 11.286,26.339 
			16.266,21.359 17.38,20.243 17.381,20.244 20.108,17.518 		"/>
		
			<rect x="13.077" y="16.983" transform="matrix(0.7282 0.6854 -0.6854 0.7282 16.8907 -3.678)" fill="#FDB913" width="0.011" height="4.948"/>
		<polygon fill="#FDB913" points="16.266,21.359 17.381,20.244 17.38,20.243 		"/>
		<polygon fill="#FDB913" points="27.074,17.479 27.076,17.479 23.574,20.981 23.572,20.98 20.852,23.701 23.4,26.249 31.97,17.678 
			29.423,15.13 		"/>
		<rect x="25.323" y="16.754" fill="#FDB913" width="0.002" height="4.953"/>
		
			<rect x="33.722" y="9.944" transform="matrix(0.7073 -0.707 0.707 0.7073 2.0472 28.4342)" fill="#FDB913" width="3.27" height="3.602"/>
		<polygon fill="#FDB913" points="17.301,27.256 8.711,35.845 11.259,38.39 19.85,29.801 		"/>
		
			<rect x="3.47" y="27.957" transform="matrix(-0.7069 0.7073 -0.7073 -0.7069 30.1341 47.0297)" fill="#FDB913" width="3.706" height="3.603"/>
		
			<rect x="20.676" y="6.894" transform="matrix(-0.7071 0.7071 -0.7071 -0.7071 51.1922 -3.814)" fill="#FDB913" width="11.419" height="3.602"/>
		<polygon fill="#FDB913" points="7.476,17.362 5.317,15.199 0,20.52 11.388,31.898 13.5,29.786 4.286,20.559 		"/>
		<polygon fill="#FDB913" points="29.474,32.33 29.486,32.343 32.205,29.633 30.023,27.462 20.369,37.105 17.083,33.823 
			14.963,35.943 20.409,41.388 25.977,35.839 25.974,35.836 		"/>
		<polygon fill="#FDB913" points="29.474,32.33 25.974,35.836 25.977,35.839 29.486,32.343 		"/>
		<polygon fill="#FDB913" points="33.212,17.66 33.194,17.679 36.5,20.983 33.566,23.904 35.729,26.068 40.934,20.868 29.473,9.407 
			27.198,11.681 29.423,13.906 29.443,13.887 		"/>
		
			<rect x="28.651" y="15.769" transform="matrix(0.7067 0.7075 -0.7075 0.7067 20.3504 -17.5278)" fill="#FDB913" width="5.334" height="0.028"/>
		<polygon fill="#FDB913" points="23.602,7.643 25.879,5.354 20.522,0 8.855,11.662 11.016,13.824 20.409,4.434 		"/>
	</g>
	<g>
		<path fill="#FFFFFF" d="M55.085,16.399c-0.256-0.791-0.491-1.304-0.791-1.517c-0.235-0.15-0.662-0.192-0.854-0.192
			c-0.213,0-0.342-0.021-0.342-0.192c0-0.149,0.172-0.192,0.47-0.192c1.111,0,2.286,0.063,2.478,0.063
			c0.192,0,1.132-0.063,2.371-0.063c0.299,0,0.449,0.063,0.449,0.192c0,0.171-0.171,0.192-0.385,0.192c-0.171,0-0.385,0-0.535,0.085
			c-0.191,0.086-0.235,0.235-0.235,0.47c0,0.278,0.214,1.005,0.47,1.966c0.363,1.41,2.349,7.882,2.734,9.078h0.064l4.145-11.129
			c0.234-0.599,0.363-0.77,0.533-0.77c0.235,0,0.342,0.321,0.62,1.005l4.443,10.745h0.064c0.384-1.433,2.093-7.071,2.841-9.57
			c0.149-0.491,0.214-0.94,0.214-1.239c0-0.342-0.192-0.641-1.025-0.641c-0.214,0-0.364-0.064-0.364-0.192
			c0-0.149,0.172-0.192,0.491-0.192c1.132,0,2.03,0.063,2.222,0.063c0.149,0,1.068-0.063,1.773-0.063
			c0.235,0,0.384,0.043,0.384,0.171c0,0.149-0.106,0.214-0.299,0.214c-0.213,0-0.512,0.021-0.748,0.106
			c-0.512,0.192-0.747,1.047-1.196,2.265c-0.982,2.691-3.225,9.483-4.271,12.688c-0.235,0.747-0.342,1.004-0.62,1.004
			c-0.213,0-0.341-0.257-0.662-1.047l-4.442-10.702h-0.043c-0.406,1.09-3.247,8.651-4.165,10.617
			c-0.406,0.875-0.513,1.132-0.77,1.132c-0.213,0-0.32-0.235-0.491-0.79L55.085,16.399z"/>
		<path fill="#FFFFFF" d="M95.649,22.786c0-4.785-2.756-7.754-6.259-7.754c-2.457,0-5.255,1.367-5.255,6.686
			c0,4.442,2.457,7.968,6.559,7.968C92.188,29.686,95.649,28.959,95.649,22.786 M81.188,22.38c0-3.652,2.414-8.374,8.822-8.374
			c5.319,0,8.63,3.099,8.63,7.989c0,4.892-3.418,8.759-8.844,8.759C83.666,30.754,81.188,26.16,81.188,22.38"/>
		<path fill="#FFFFFF" d="M108.977,22.188c0,0.235,0.043,0.32,0.192,0.385c0.449,0.149,1.09,0.214,1.624,0.214
			c0.854,0,1.132-0.087,1.517-0.363c0.641-0.47,1.26-1.452,1.26-3.204c0-3.033-2.008-3.909-3.268-3.909
			c-0.534,0-0.919,0.021-1.133,0.086c-0.149,0.043-0.192,0.128-0.192,0.299V22.188z M106.457,20.5c0-3.246,0-3.844-0.043-4.527
			c-0.042-0.728-0.213-1.069-0.918-1.219c-0.17-0.042-0.534-0.063-0.833-0.063c-0.234,0-0.363-0.043-0.363-0.192
			s0.15-0.192,0.47-0.192c1.132,0,2.478,0.063,2.926,0.063c0.727,0,2.351-0.063,3.013-0.063c1.346,0,2.776,0.128,3.93,0.919
			c0.598,0.405,1.453,1.495,1.453,2.927c0,1.58-0.663,3.032-2.819,4.784c1.9,2.392,3.374,4.293,4.635,5.617
			c1.196,1.24,2.072,1.39,2.393,1.453c0.235,0.043,0.427,0.064,0.598,0.064c0.17,0,0.256,0.064,0.256,0.171
			c0,0.171-0.148,0.214-0.406,0.214h-2.029c-1.196,0-1.729-0.107-2.285-0.406c-0.919-0.491-1.731-1.496-2.927-3.141
			c-0.854-1.175-1.837-2.627-2.114-2.947c-0.106-0.129-0.235-0.149-0.385-0.149l-1.857-0.043c-0.107,0-0.171,0.043-0.171,0.171
			v0.299c0,1.986,0,3.674,0.106,4.571c0.065,0.619,0.193,1.09,0.833,1.175c0.321,0.042,0.791,0.086,1.047,0.086
			c0.171,0,0.256,0.064,0.256,0.171c0,0.149-0.149,0.214-0.427,0.214c-1.239,0-2.82-0.064-3.141-0.064
			c-0.405,0-1.751,0.064-2.606,0.064c-0.277,0-0.427-0.064-0.427-0.214c0-0.106,0.085-0.171,0.341-0.171
			c0.32,0,0.577-0.044,0.77-0.086c0.427-0.085,0.533-0.556,0.62-1.175c0.106-0.897,0.106-2.585,0.106-4.55V20.5z"/>
		<path fill="#FFFFFF" d="M128.607,24.26c0,2.733,0,4.208,0.448,4.593c0.363,0.32,0.919,0.47,2.584,0.47
			c1.133,0,1.966-0.021,2.499-0.599c0.257-0.277,0.513-0.876,0.557-1.281c0.021-0.192,0.063-0.32,0.235-0.32
			c0.148,0,0.171,0.106,0.171,0.362c0,0.235-0.15,1.838-0.321,2.458c-0.128,0.47-0.236,0.576-1.346,0.576
			c-3.076,0-4.486-0.128-6.217-0.128c-0.491,0-1.836,0.064-2.691,0.064c-0.277,0-0.427-0.064-0.427-0.214
			c0-0.106,0.085-0.171,0.341-0.171c0.321,0,0.577-0.043,0.77-0.086c0.427-0.085,0.533-0.555,0.619-1.175
			c0.107-0.897,0.107-2.585,0.107-4.55V20.5c0-3.246,0-3.844-0.043-4.528c-0.042-0.727-0.213-1.068-0.918-1.218
			c-0.172-0.042-0.427-0.063-0.705-0.063c-0.235,0-0.364-0.043-0.364-0.192s0.15-0.191,0.47-0.191c1.004,0,2.349,0.063,2.926,0.063
			c0.513,0,2.073-0.063,2.906-0.063c0.299,0,0.448,0.042,0.448,0.191s-0.127,0.192-0.384,0.192c-0.235,0-0.577,0.021-0.833,0.063
			c-0.577,0.107-0.748,0.471-0.791,1.218c-0.042,0.685-0.042,1.282-0.042,4.528V24.26z"/>
		<path fill="#FFFFFF" d="M144.884,22.85c0,2.265,0.022,3.909,0.042,4.314c0.022,0.534,0.064,1.389,0.235,1.624
			c0.278,0.406,1.111,0.854,2.798,0.854c2.18,0,3.631-0.427,4.913-1.538c1.367-1.175,1.795-3.119,1.795-5.318
			c0-2.713-1.132-4.464-2.051-5.34c-1.964-1.88-4.399-2.137-6.066-2.137c-0.427,0-1.217,0.063-1.389,0.149
			c-0.192,0.086-0.255,0.192-0.255,0.428c-0.022,0.727-0.022,2.585-0.022,4.271V22.85z M142.214,20.5c0-3.246,0-3.844-0.043-4.527
			c-0.042-0.728-0.213-1.069-0.918-1.219c-0.17-0.042-0.533-0.063-0.833-0.063c-0.235,0-0.364-0.043-0.364-0.192
			s0.15-0.192,0.47-0.192c1.132,0,2.478,0.063,3.076,0.063c0.662,0,2.008-0.063,3.289-0.063c2.67,0,6.238,0,8.566,2.436
			c1.067,1.11,2.071,2.884,2.071,5.425c0,2.691-1.132,4.742-2.329,5.96c-0.982,1.004-3.204,2.521-7.155,2.521
			c-1.56,0-3.482-0.256-4.55-0.256c-0.492,0-1.838,0.064-2.691,0.064c-0.278,0-0.428-0.064-0.428-0.214
			c0-0.106,0.085-0.171,0.342-0.171c0.319,0,0.577-0.044,0.769-0.086c0.427-0.085,0.534-0.556,0.62-1.175
			c0.106-0.897,0.106-2.585,0.106-4.55V20.5z"/>
		<path fill="#FFFFFF" d="M177.842,22.188c0,0.235,0.043,0.32,0.191,0.385c0.449,0.149,1.09,0.214,1.625,0.214
			c0.854,0,1.131-0.087,1.516-0.363c0.641-0.47,1.26-1.452,1.26-3.204c0-3.033-2.008-3.909-3.268-3.909
			c-0.533,0-0.918,0.021-1.133,0.086c-0.148,0.043-0.191,0.128-0.191,0.299V22.188z M175.322,20.5c0-3.246,0-3.844-0.043-4.527
			c-0.042-0.728-0.213-1.069-0.918-1.219c-0.171-0.042-0.535-0.063-0.833-0.063c-0.234,0-0.363-0.043-0.363-0.192
			s0.15-0.192,0.471-0.192c1.131,0,2.477,0.063,2.926,0.063c0.726,0,2.35-0.063,3.012-0.063c1.346,0,2.777,0.128,3.93,0.919
			c0.598,0.405,1.453,1.495,1.453,2.927c0,1.58-0.663,3.032-2.82,4.784c1.901,2.392,3.375,4.293,4.635,5.617
			c1.197,1.24,2.073,1.39,2.393,1.453c0.235,0.043,0.428,0.064,0.598,0.064c0.171,0,0.256,0.064,0.256,0.171
			c0,0.171-0.148,0.214-0.405,0.214h-2.029c-1.197,0-1.73-0.107-2.285-0.406c-0.92-0.491-1.73-1.496-2.928-3.141
			c-0.854-1.175-1.836-2.627-2.114-2.947c-0.107-0.129-0.235-0.149-0.385-0.149l-1.857-0.043c-0.107,0-0.172,0.043-0.172,0.171
			v0.299c0,1.986,0,3.674,0.106,4.571c0.065,0.619,0.192,1.09,0.833,1.175c0.321,0.042,0.791,0.086,1.047,0.086
			c0.172,0,0.256,0.064,0.256,0.171c0,0.149-0.149,0.214-0.426,0.214c-1.24,0-2.82-0.064-3.141-0.064
			c-0.406,0-1.752,0.064-2.606,0.064c-0.277,0-0.428-0.064-0.428-0.214c0-0.106,0.086-0.171,0.342-0.171
			c0.321,0,0.577-0.044,0.77-0.086c0.427-0.085,0.534-0.556,0.62-1.175c0.107-0.897,0.107-2.585,0.107-4.55V20.5z"/>
		<path fill="#FFFFFF" d="M194.803,20.5c0-3.246,0-3.844-0.043-4.527c-0.042-0.728-0.213-1.069-0.918-1.219
			c-0.17-0.042-0.534-0.063-0.833-0.063c-0.234,0-0.363-0.043-0.363-0.192s0.149-0.192,0.47-0.192c1.133,0,2.479,0.063,3.077,0.063
			c0.684,0,4.935,0,5.34-0.021c0.406-0.043,0.748-0.086,0.918-0.129c0.107-0.021,0.235-0.085,0.342-0.085
			c0.107,0,0.129,0.085,0.129,0.192c0,0.149-0.107,0.405-0.172,1.389c-0.02,0.214-0.063,1.153-0.106,1.41
			c-0.021,0.106-0.064,0.234-0.213,0.234c-0.149,0-0.192-0.106-0.192-0.299c0-0.149-0.021-0.513-0.128-0.769
			c-0.149-0.385-0.364-0.642-1.432-0.77c-0.362-0.043-2.604-0.085-3.033-0.085c-0.106,0-0.148,0.063-0.148,0.213v5.404
			c0,0.149,0.021,0.234,0.148,0.234c0.47,0,2.927,0,3.418-0.042c0.513-0.043,0.833-0.106,1.025-0.32
			c0.15-0.171,0.235-0.277,0.342-0.277c0.085,0,0.149,0.041,0.149,0.171c0,0.128-0.106,0.469-0.171,1.559
			c-0.042,0.428-0.085,1.281-0.085,1.432c0,0.171,0,0.405-0.192,0.405c-0.149,0-0.192-0.085-0.192-0.192
			c-0.021-0.213-0.021-0.491-0.085-0.769c-0.107-0.428-0.406-0.748-1.195-0.833c-0.407-0.043-2.521-0.064-3.033-0.064
			c-0.107,0-0.128,0.086-0.128,0.214v1.688c0,0.726-0.022,2.691,0,3.311c0.042,1.475,0.384,1.795,2.562,1.795
			c0.557,0,1.453,0,2.008-0.257c0.556-0.256,0.813-0.705,0.962-1.58c0.042-0.235,0.085-0.321,0.235-0.321
			c0.17,0,0.17,0.171,0.17,0.385c0,0.491-0.17,1.944-0.277,2.372c-0.149,0.555-0.341,0.555-1.153,0.555
			c-3.226,0-4.658-0.128-5.917-0.128c-0.491,0-1.837,0.064-2.691,0.064c-0.279,0-0.428-0.064-0.428-0.214
			c0-0.106,0.085-0.171,0.341-0.171c0.32,0,0.577-0.044,0.77-0.086c0.427-0.085,0.534-0.556,0.62-1.175
			c0.106-0.897,0.106-2.585,0.106-4.55V20.5z"/>
		<path fill="#FFFFFF" d="M210.481,30.198c-0.342-0.149-0.406-0.256-0.406-0.727c0-1.175,0.086-2.457,0.107-2.799
			c0.02-0.32,0.086-0.555,0.255-0.555c0.192,0,0.214,0.192,0.214,0.362c0,0.278,0.086,0.727,0.193,1.09
			c0.469,1.581,1.729,2.158,3.055,2.158c1.921,0,2.862-1.304,2.862-2.436c0-1.047-0.32-2.051-2.094-3.418l-0.983-0.769
			c-2.35-1.837-3.162-3.332-3.162-5.063c0-2.35,1.967-4.038,4.936-4.038c1.388,0,2.285,0.214,2.84,0.363
			c0.193,0.043,0.3,0.107,0.3,0.257c0,0.277-0.085,0.897-0.085,2.563c0,0.471-0.064,0.641-0.235,0.641
			c-0.149,0-0.214-0.128-0.214-0.384c0-0.192-0.107-0.854-0.555-1.41c-0.321-0.406-0.94-1.047-2.329-1.047
			c-1.581,0-2.543,0.919-2.543,2.2c0,0.982,0.492,1.73,2.265,3.076l0.598,0.448c2.563,1.986,3.502,3.418,3.502,5.446
			c0,1.239-0.47,2.714-2.008,3.718c-1.068,0.684-2.264,0.876-3.396,0.876C212.36,30.754,211.399,30.604,210.481,30.198"/>
		<path fill="#FFFFFF" d="M239.573,22.786c0-4.785-2.756-7.754-6.259-7.754c-2.457,0-5.254,1.367-5.254,6.686
			c0,4.442,2.458,7.968,6.558,7.968C236.114,29.686,239.573,28.959,239.573,22.786 M225.113,22.38c0-3.652,2.413-8.374,8.822-8.374
			c5.318,0,8.629,3.099,8.629,7.989c0,4.892-3.418,8.759-8.844,8.759C227.591,30.754,225.113,26.16,225.113,22.38"/>
		<path fill="#FFFFFF" d="M249.678,20.5c0-3.246,0-3.844-0.044-4.527c-0.042-0.728-0.213-1.069-0.918-1.219
			c-0.171-0.042-0.533-0.063-0.833-0.063c-0.234,0-0.363-0.043-0.363-0.192s0.15-0.192,0.471-0.192c1.131,0,2.478,0.063,3.118,0.063
			c0.513,0,1.858-0.063,2.627-0.063c0.32,0,0.471,0.043,0.471,0.192s-0.128,0.192-0.342,0.192c-0.235,0-0.363,0.021-0.62,0.063
			c-0.576,0.107-0.748,0.471-0.79,1.219c-0.043,0.684-0.043,1.281-0.043,4.527v2.99c0,3.098,0.62,4.4,1.667,5.255
			c0.96,0.791,1.944,0.877,2.669,0.877c0.941,0,2.094-0.3,2.947-1.154c1.176-1.175,1.24-3.098,1.24-5.298V20.5
			c0-3.246,0-3.844-0.043-4.527c-0.043-0.728-0.213-1.069-0.918-1.219c-0.172-0.042-0.535-0.063-0.77-0.063
			c-0.236,0-0.363-0.043-0.363-0.192s0.15-0.192,0.449-0.192c1.089,0,2.434,0.063,2.456,0.063c0.257,0,1.603-0.063,2.435-0.063
			c0.299,0,0.449,0.043,0.449,0.192s-0.129,0.192-0.385,0.192c-0.234,0-0.363,0.021-0.619,0.063
			c-0.577,0.107-0.748,0.471-0.79,1.219c-0.044,0.684-0.044,1.281-0.044,4.527v2.286c0,2.37-0.234,4.891-2.028,6.43
			c-1.517,1.303-3.056,1.538-4.444,1.538c-1.131,0-3.182-0.064-4.741-1.475c-1.09-0.982-1.9-2.563-1.9-5.66V20.5z"/>
		<path fill="#FFFFFF" d="M274.669,22.188c0,0.235,0.043,0.32,0.192,0.385c0.448,0.149,1.089,0.214,1.623,0.214
			c0.854,0,1.132-0.087,1.516-0.363c0.642-0.47,1.261-1.452,1.261-3.204c0-3.033-2.008-3.909-3.268-3.909
			c-0.534,0-0.918,0.021-1.132,0.086c-0.149,0.043-0.192,0.128-0.192,0.299V22.188z M272.147,20.5c0-3.246,0-3.844-0.043-4.527
			c-0.042-0.728-0.213-1.069-0.918-1.219c-0.17-0.042-0.533-0.063-0.832-0.063c-0.236,0-0.363-0.043-0.363-0.192
			s0.148-0.192,0.469-0.192c1.133,0,2.479,0.063,2.927,0.063c0.727,0,2.351-0.063,3.013-0.063c1.346,0,2.775,0.128,3.93,0.919
			c0.598,0.405,1.453,1.495,1.453,2.927c0,1.58-0.662,3.032-2.82,4.784c1.9,2.392,3.375,4.293,4.635,5.617
			c1.197,1.24,2.072,1.39,2.393,1.453c0.236,0.043,0.428,0.064,0.599,0.064s0.256,0.064,0.256,0.171
			c0,0.171-0.149,0.214-0.405,0.214h-2.029c-1.195,0-1.73-0.107-2.285-0.406c-0.918-0.491-1.73-1.496-2.927-3.141
			c-0.854-1.175-1.837-2.627-2.114-2.947c-0.107-0.129-0.236-0.149-0.386-0.149l-1.858-0.043c-0.106,0-0.17,0.043-0.17,0.171v0.299
			c0,1.986,0,3.674,0.106,4.571c0.063,0.619,0.192,1.09,0.833,1.175c0.32,0.042,0.791,0.086,1.047,0.086
			c0.171,0,0.256,0.064,0.256,0.171c0,0.149-0.149,0.214-0.427,0.214c-1.238,0-2.819-0.064-3.14-0.064
			c-0.406,0-1.752,0.064-2.605,0.064c-0.279,0-0.428-0.064-0.428-0.214c0-0.106,0.084-0.171,0.342-0.171
			c0.32,0,0.576-0.044,0.768-0.086c0.428-0.085,0.535-0.556,0.621-1.175c0.105-0.897,0.105-2.585,0.105-4.55V20.5z"/>
		<path fill="#FFFFFF" d="M291.843,28.425c-2.094-1.837-2.648-4.229-2.648-6.301c0-1.453,0.448-3.973,2.498-5.853
			c1.539-1.41,3.568-2.266,6.751-2.266c1.324,0,2.115,0.086,3.098,0.214c0.812,0.107,1.494,0.3,2.135,0.363
			c0.235,0.021,0.32,0.129,0.32,0.257c0,0.171-0.063,0.427-0.106,1.175c-0.043,0.705-0.021,1.88-0.063,2.308
			c-0.021,0.32-0.063,0.491-0.257,0.491c-0.17,0-0.214-0.171-0.214-0.471c-0.021-0.662-0.298-1.409-0.832-1.965
			c-0.704-0.748-2.371-1.324-4.337-1.324c-1.857,0-3.076,0.47-4.015,1.324c-1.561,1.432-1.965,3.46-1.965,5.532
			c0,5.083,3.865,7.604,6.728,7.604c1.901,0,3.054-0.214,3.909-1.196c0.362-0.406,0.642-1.025,0.726-1.41
			c0.064-0.342,0.106-0.428,0.277-0.428c0.149,0,0.193,0.15,0.193,0.321c0,0.256-0.257,2.114-0.471,2.841
			c-0.106,0.363-0.191,0.471-0.555,0.62c-0.855,0.342-2.479,0.491-3.846,0.491C296.242,30.754,293.787,30.113,291.843,28.425"/>
		<path fill="#FFFFFF" d="M311.964,20.5c0-3.246,0-3.844-0.043-4.527c-0.043-0.728-0.214-1.069-0.918-1.219
			c-0.171-0.042-0.534-0.063-0.833-0.063c-0.235,0-0.363-0.043-0.363-0.192s0.149-0.192,0.47-0.192c1.133,0,2.479,0.063,3.077,0.063
			c0.682,0,4.934,0,5.338-0.021c0.407-0.043,0.749-0.086,0.92-0.129c0.106-0.021,0.234-0.085,0.341-0.085s0.129,0.085,0.129,0.192
			c0,0.149-0.106,0.405-0.172,1.389c-0.021,0.214-0.063,1.153-0.106,1.41c-0.021,0.106-0.064,0.234-0.213,0.234
			c-0.149,0-0.193-0.106-0.193-0.299c0-0.149-0.021-0.513-0.127-0.769c-0.149-0.385-0.363-0.642-1.432-0.77
			c-0.362-0.043-2.606-0.085-3.033-0.085c-0.106,0-0.148,0.063-0.148,0.213v5.404c0,0.149,0.021,0.234,0.148,0.234
			c0.47,0,2.926,0,3.417-0.042c0.514-0.043,0.834-0.106,1.025-0.32c0.149-0.171,0.236-0.277,0.343-0.277
			c0.085,0,0.148,0.041,0.148,0.171c0,0.128-0.106,0.469-0.171,1.559c-0.043,0.428-0.084,1.281-0.084,1.432
			c0,0.171,0,0.405-0.193,0.405c-0.149,0-0.191-0.085-0.191-0.192c-0.022-0.213-0.022-0.491-0.085-0.769
			c-0.107-0.428-0.407-0.748-1.196-0.833c-0.407-0.043-2.521-0.064-3.033-0.064c-0.107,0-0.128,0.086-0.128,0.214v1.688
			c0,0.726-0.022,2.691,0,3.311c0.042,1.475,0.384,1.795,2.563,1.795c0.555,0,1.453,0,2.008-0.257
			c0.555-0.256,0.812-0.705,0.961-1.58c0.042-0.235,0.085-0.321,0.235-0.321c0.17,0,0.17,0.171,0.17,0.385
			c0,0.491-0.17,1.944-0.276,2.372c-0.15,0.555-0.342,0.555-1.153,0.555c-3.227,0-4.656-0.128-5.917-0.128
			c-0.491,0-1.837,0.064-2.692,0.064c-0.277,0-0.427-0.064-0.427-0.214c0-0.106,0.085-0.171,0.342-0.171
			c0.32,0,0.576-0.044,0.77-0.086c0.427-0.085,0.533-0.556,0.619-1.175c0.106-0.897,0.106-2.585,0.106-4.55V20.5z"/>
		<path fill="#FFFFFF" d="M327.643,30.198c-0.341-0.149-0.405-0.256-0.405-0.727c0-1.175,0.085-2.457,0.106-2.799
			c0.022-0.32,0.085-0.555,0.256-0.555c0.193,0,0.214,0.192,0.214,0.362c0,0.278,0.086,0.727,0.193,1.09
			c0.469,1.581,1.729,2.158,3.053,2.158c1.923,0,2.863-1.304,2.863-2.436c0-1.047-0.32-2.051-2.094-3.418l-0.982-0.769
			c-2.349-1.837-3.16-3.332-3.16-5.063c0-2.35,1.964-4.038,4.934-4.038c1.388,0,2.285,0.214,2.84,0.363
			c0.193,0.043,0.3,0.107,0.3,0.257c0,0.277-0.086,0.897-0.086,2.563c0,0.471-0.063,0.641-0.234,0.641
			c-0.15,0-0.214-0.128-0.214-0.384c0-0.192-0.106-0.854-0.555-1.41c-0.32-0.406-0.941-1.047-2.328-1.047
			c-1.582,0-2.542,0.919-2.542,2.2c0,0.982,0.491,1.73,2.263,3.076l0.6,0.448c2.563,1.986,3.502,3.418,3.502,5.446
			c0,1.239-0.47,2.714-2.008,3.718c-1.068,0.684-2.265,0.876-3.396,0.876C329.523,30.754,328.561,30.604,327.643,30.198"/>
		<path fill="#FFFFFF" d="M354.363,20.5c0-3.246,0-3.844-0.043-4.527c-0.043-0.728-0.256-1.09-0.725-1.197
			c-0.236-0.063-0.514-0.085-0.77-0.085c-0.214,0-0.343-0.043-0.343-0.214c0-0.128,0.171-0.171,0.514-0.171
			c0.812,0,2.156,0.063,2.775,0.063c0.535,0,1.795-0.063,2.606-0.063c0.277,0,0.448,0.043,0.448,0.171
			c0,0.171-0.127,0.214-0.342,0.214c-0.214,0-0.384,0.021-0.641,0.063c-0.577,0.107-0.747,0.471-0.789,1.219
			c-0.043,0.684-0.043,1.281-0.043,4.527v3.76c0,2.071,0,3.759,0.085,4.678c0.063,0.577,0.213,0.962,0.854,1.047
			c0.301,0.042,0.77,0.086,1.09,0.086c0.234,0,0.343,0.064,0.343,0.171c0,0.149-0.172,0.214-0.407,0.214
			c-1.409,0-2.755-0.064-3.331-0.064c-0.492,0-1.837,0.064-2.692,0.064c-0.276,0-0.427-0.064-0.427-0.214
			c0-0.106,0.086-0.171,0.342-0.171c0.32,0,0.576-0.044,0.77-0.086c0.427-0.085,0.556-0.448,0.619-1.068
			c0.106-0.897,0.106-2.585,0.106-4.656V20.5z"/>
		<path fill="#FFFFFF" d="M368.568,27.549c0.043,1.667,0.321,2.223,0.748,2.372c0.363,0.128,0.769,0.149,1.11,0.149
			c0.235,0,0.362,0.043,0.362,0.171c0,0.171-0.191,0.214-0.491,0.214c-1.388,0-2.241-0.064-2.648-0.064
			c-0.191,0-1.196,0.064-2.306,0.064c-0.277,0-0.47-0.021-0.47-0.214c0-0.128,0.127-0.171,0.341-0.171
			c0.277,0,0.662-0.021,0.961-0.106c0.556-0.171,0.642-0.791,0.662-2.65l0.193-12.645c0-0.428,0.064-0.727,0.277-0.727
			c0.234,0,0.428,0.277,0.79,0.662c0.256,0.278,3.502,3.76,6.621,6.857c1.453,1.452,4.337,4.527,4.7,4.869h0.106l-0.214-9.59
			c-0.021-1.303-0.214-1.709-0.725-1.923c-0.321-0.128-0.834-0.128-1.133-0.128c-0.257,0-0.343-0.064-0.343-0.191
			c0-0.172,0.236-0.193,0.557-0.193c1.109,0,2.135,0.063,2.583,0.063c0.236,0,1.048-0.063,2.094-0.063
			c0.277,0,0.491,0.021,0.491,0.193c0,0.127-0.127,0.191-0.384,0.191c-0.214,0-0.384,0-0.642,0.063
			c-0.598,0.171-0.769,0.62-0.79,1.816l-0.235,13.479c0,0.47-0.084,0.662-0.277,0.662c-0.234,0-0.491-0.235-0.726-0.47
			c-1.346-1.282-4.08-4.081-6.302-6.28c-2.328-2.307-4.7-4.977-5.083-5.383h-0.064L368.568,27.549z"/>
		<path fill="#FFFFFF" d="M389.779,30.198c-0.342-0.149-0.405-0.256-0.405-0.727c0-1.175,0.085-2.457,0.106-2.799
			c0.021-0.32,0.085-0.555,0.256-0.555c0.193,0,0.214,0.192,0.214,0.362c0,0.278,0.086,0.727,0.193,1.09
			c0.469,1.581,1.729,2.158,3.053,2.158c1.923,0,2.863-1.304,2.863-2.436c0-1.047-0.32-2.051-2.094-3.418l-0.982-0.769
			c-2.349-1.837-3.161-3.332-3.161-5.063c0-2.35,1.965-4.038,4.935-4.038c1.388,0,2.285,0.214,2.84,0.363
			c0.193,0.043,0.3,0.107,0.3,0.257c0,0.277-0.086,0.897-0.086,2.563c0,0.471-0.063,0.641-0.234,0.641
			c-0.149,0-0.214-0.128-0.214-0.384c0-0.192-0.106-0.854-0.555-1.41c-0.32-0.406-0.941-1.047-2.328-1.047
			c-1.581,0-2.542,0.919-2.542,2.2c0,0.982,0.491,1.73,2.263,3.076l0.6,0.448c2.563,1.986,3.502,3.418,3.502,5.446
			c0,1.239-0.47,2.714-2.008,3.718c-1.068,0.684-2.265,0.876-3.396,0.876C391.66,30.754,390.698,30.604,389.779,30.198"/>
		<path fill="#FFFFFF" d="M409.58,15.502l-3.183,0.086c-1.238,0.042-1.751,0.149-2.072,0.619c-0.213,0.32-0.32,0.577-0.362,0.748
			s-0.106,0.256-0.235,0.256c-0.149,0-0.191-0.106-0.191-0.342c0-0.342,0.405-2.286,0.448-2.457
			c0.063-0.277,0.128-0.406,0.257-0.406c0.171,0,0.385,0.214,0.918,0.257c0.62,0.064,1.432,0.106,2.137,0.106h8.458
			c1.367,0,1.879-0.213,2.051-0.213c0.149,0,0.171,0.128,0.171,0.448c0,0.449-0.063,1.923-0.063,2.479
			c-0.022,0.214-0.065,0.342-0.193,0.342c-0.17,0-0.214-0.106-0.234-0.427l-0.022-0.235c-0.042-0.556-0.618-1.154-2.52-1.196
			l-2.692-0.064v8.758c0,1.965,0,3.652,0.106,4.571c0.064,0.599,0.193,1.068,0.834,1.153c0.298,0.043,0.77,0.086,1.09,0.086
			c0.234,0,0.342,0.064,0.342,0.171c0,0.149-0.171,0.214-0.407,0.214c-1.409,0-2.754-0.064-3.353-0.064
			c-0.491,0-1.837,0.064-2.692,0.064c-0.276,0-0.427-0.064-0.427-0.214c0-0.106,0.086-0.171,0.343-0.171
			c0.319,0,0.575-0.043,0.769-0.086c0.428-0.085,0.556-0.555,0.618-1.175c0.107-0.897,0.107-2.585,0.107-4.55V15.502z"/>
		<path fill="#FFFFFF" d="M425.259,20.5c0-3.246,0-3.844-0.043-4.527c-0.042-0.728-0.255-1.09-0.725-1.197
			c-0.236-0.063-0.514-0.085-0.77-0.085c-0.214,0-0.343-0.043-0.343-0.214c0-0.128,0.172-0.171,0.514-0.171
			c0.812,0,2.157,0.063,2.775,0.063c0.535,0,1.795-0.063,2.606-0.063c0.278,0,0.449,0.043,0.449,0.171
			c0,0.171-0.128,0.214-0.342,0.214s-0.385,0.021-0.641,0.063c-0.577,0.107-0.748,0.471-0.79,1.219
			c-0.043,0.684-0.043,1.281-0.043,4.527v3.76c0,2.071,0,3.759,0.085,4.678c0.064,0.577,0.213,0.962,0.854,1.047
			c0.3,0.042,0.769,0.086,1.09,0.086c0.235,0,0.342,0.064,0.342,0.171c0,0.149-0.171,0.214-0.406,0.214
			c-1.41,0-2.756-0.064-3.332-0.064c-0.491,0-1.837,0.064-2.692,0.064c-0.277,0-0.427-0.064-0.427-0.214
			c0-0.106,0.086-0.171,0.343-0.171c0.319,0,0.575-0.044,0.769-0.086c0.428-0.085,0.556-0.448,0.619-1.068
			c0.106-0.897,0.106-2.585,0.106-4.656V20.5z"/>
		<path fill="#FFFFFF" d="M441.108,15.502l-3.183,0.086c-1.238,0.042-1.751,0.149-2.072,0.619c-0.213,0.32-0.32,0.577-0.362,0.748
			s-0.106,0.256-0.235,0.256c-0.149,0-0.191-0.106-0.191-0.342c0-0.342,0.405-2.286,0.448-2.457
			c0.063-0.277,0.128-0.406,0.257-0.406c0.171,0,0.385,0.214,0.918,0.257c0.619,0.064,1.432,0.106,2.137,0.106h8.459
			c1.366,0,1.878-0.213,2.05-0.213c0.149,0,0.171,0.128,0.171,0.448c0,0.449-0.063,1.923-0.063,2.479
			c-0.022,0.214-0.065,0.342-0.193,0.342c-0.17,0-0.214-0.106-0.234-0.427l-0.022-0.235c-0.041-0.556-0.618-1.154-2.519-1.196
			l-2.692-0.064v8.758c0,1.965,0,3.652,0.106,4.571c0.064,0.599,0.192,1.068,0.834,1.153c0.298,0.043,0.769,0.086,1.09,0.086
			c0.234,0,0.342,0.064,0.342,0.171c0,0.149-0.172,0.214-0.407,0.214c-1.409,0-2.755-0.064-3.354-0.064
			c-0.491,0-1.837,0.064-2.692,0.064c-0.276,0-0.427-0.064-0.427-0.214c0-0.106,0.086-0.171,0.343-0.171
			c0.319,0,0.575-0.043,0.769-0.086c0.428-0.085,0.556-0.555,0.619-1.175c0.106-0.897,0.106-2.585,0.106-4.55V15.502z"/>
		<path fill="#FFFFFF" d="M455.868,20.5c0-3.246,0-3.844-0.042-4.527c-0.043-0.728-0.214-1.069-0.919-1.219
			c-0.171-0.042-0.533-0.063-0.832-0.063c-0.234,0-0.364-0.043-0.364-0.192s0.15-0.192,0.472-0.192c1.132,0,2.478,0.063,3.117,0.063
			c0.514,0,1.859-0.063,2.629-0.063c0.32,0,0.47,0.043,0.47,0.192s-0.129,0.192-0.343,0.192c-0.234,0-0.363,0.021-0.618,0.063
			c-0.578,0.107-0.748,0.471-0.791,1.219c-0.043,0.684-0.043,1.281-0.043,4.527v2.99c0,3.098,0.62,4.4,1.666,5.255
			c0.962,0.791,1.944,0.877,2.67,0.877c0.94,0,2.094-0.3,2.948-1.154c1.174-1.175,1.239-3.098,1.239-5.298V20.5
			c0-3.246,0-3.844-0.043-4.527c-0.043-0.728-0.214-1.069-0.918-1.219c-0.171-0.042-0.534-0.063-0.77-0.063
			s-0.363-0.043-0.363-0.192s0.149-0.192,0.448-0.192c1.089,0,2.435,0.063,2.456,0.063c0.256,0,1.602-0.063,2.436-0.063
			c0.299,0,0.448,0.043,0.448,0.192s-0.128,0.192-0.385,0.192c-0.234,0-0.362,0.021-0.619,0.063
			c-0.577,0.107-0.748,0.471-0.79,1.219c-0.042,0.684-0.042,1.281-0.042,4.527v2.286c0,2.37-0.236,4.891-2.03,6.43
			c-1.517,1.303-3.055,1.538-4.442,1.538c-1.132,0-3.183-0.064-4.742-1.475c-1.09-0.982-1.902-2.563-1.902-5.66V20.5z"/>
		<path fill="#FFFFFF" d="M481.18,15.502l-3.183,0.086c-1.239,0.042-1.751,0.149-2.072,0.619c-0.213,0.32-0.32,0.577-0.362,0.748
			s-0.106,0.256-0.235,0.256c-0.149,0-0.191-0.106-0.191-0.342c0-0.342,0.405-2.286,0.448-2.457
			c0.063-0.277,0.128-0.406,0.257-0.406c0.171,0,0.385,0.214,0.917,0.257c0.62,0.064,1.433,0.106,2.138,0.106h8.459
			c1.366,0,1.878-0.213,2.05-0.213c0.149,0,0.171,0.128,0.171,0.448c0,0.449-0.063,1.923-0.063,2.479
			c-0.022,0.214-0.065,0.342-0.193,0.342c-0.17,0-0.214-0.106-0.234-0.427l-0.022-0.235c-0.041-0.556-0.618-1.154-2.519-1.196
			l-2.692-0.064v8.758c0,1.965,0,3.652,0.106,4.571c0.064,0.599,0.193,1.068,0.833,1.153c0.299,0.043,0.771,0.086,1.091,0.086
			c0.234,0,0.342,0.064,0.342,0.171c0,0.149-0.171,0.214-0.407,0.214c-1.409,0-2.755-0.064-3.354-0.064
			c-0.491,0-1.837,0.064-2.692,0.064c-0.276,0-0.427-0.064-0.427-0.214c0-0.106,0.086-0.171,0.342-0.171
			c0.32,0,0.576-0.043,0.77-0.086c0.427-0.085,0.556-0.555,0.619-1.175c0.106-0.897,0.106-2.585,0.106-4.55V15.502z"/>
		<path fill="#FFFFFF" d="M496.859,20.5c0-3.246,0-3.844-0.043-4.527c-0.043-0.728-0.214-1.069-0.919-1.219
			c-0.17-0.042-0.533-0.063-0.833-0.063c-0.234,0-0.363-0.043-0.363-0.192s0.149-0.192,0.471-0.192c1.132,0,2.479,0.063,3.077,0.063
			c0.682,0,4.933,0,5.338-0.021c0.406-0.043,0.749-0.086,0.92-0.129c0.105-0.021,0.234-0.085,0.341-0.085s0.129,0.085,0.129,0.192
			c0,0.149-0.106,0.405-0.172,1.389c-0.021,0.214-0.063,1.153-0.106,1.41c-0.021,0.106-0.064,0.234-0.213,0.234
			c-0.149,0-0.193-0.106-0.193-0.299c0-0.149-0.021-0.513-0.127-0.769c-0.149-0.385-0.363-0.642-1.432-0.77
			c-0.362-0.043-2.606-0.085-3.033-0.085c-0.107,0-0.148,0.063-0.148,0.213v5.404c0,0.149,0.021,0.234,0.148,0.234
			c0.47,0,2.926,0,3.417-0.042c0.514-0.043,0.834-0.106,1.025-0.32c0.149-0.171,0.236-0.277,0.343-0.277
			c0.085,0,0.148,0.041,0.148,0.171c0,0.128-0.106,0.469-0.171,1.559c-0.043,0.428-0.084,1.281-0.084,1.432
			c0,0.171,0,0.405-0.193,0.405c-0.149,0-0.192-0.085-0.192-0.192c-0.021-0.213-0.021-0.491-0.084-0.769
			c-0.107-0.428-0.407-0.748-1.196-0.833c-0.407-0.043-2.521-0.064-3.034-0.064c-0.106,0-0.127,0.086-0.127,0.214v1.688
			c0,0.726-0.022,2.691,0,3.311c0.041,1.475,0.384,1.795,2.563,1.795c0.555,0,1.453,0,2.008-0.257
			c0.555-0.256,0.812-0.705,0.961-1.58c0.042-0.235,0.085-0.321,0.234-0.321c0.171,0,0.171,0.171,0.171,0.385
			c0,0.491-0.171,1.944-0.276,2.372c-0.15,0.555-0.342,0.555-1.153,0.555c-3.227,0-4.656-0.128-5.917-0.128
			c-0.491,0-1.838,0.064-2.692,0.064c-0.277,0-0.428-0.064-0.428-0.214c0-0.106,0.086-0.171,0.343-0.171
			c0.32,0,0.576-0.044,0.769-0.086c0.428-0.085,0.534-0.556,0.62-1.175c0.106-0.897,0.106-2.585,0.106-4.55V20.5z"/>
	</g>
</g>
</svg>
