<?xml version="1.0" encoding="UTF-8" standalone="no"?>
<svg width="437px" height="152px" viewBox="0 0 437 152" version="1.1" xmlns="http://www.w3.org/2000/svg" xmlns:xlink="http://www.w3.org/1999/xlink" xmlns:sketch="http://www.bohemiancoding.com/sketch/ns">
    <!-- Generator: Sketch 3.0.4 (8053) - http://www.bohemiancoding.com/sketch -->
    <title>Slice 2</title>
    <desc>Created with Sketch.</desc>
    <defs></defs>
    <g id="Page-1" stroke="none" stroke-width="1" fill="none" fill-rule="evenodd" sketch:type="MSPage">
        <g id="WRI_logo_4c" sketch:type="MSLayerGroup">
            <path d="M17.818,32.528 L9.509,40.835 L41.409,72.747 L49.723,64.432 L17.818,32.528" id="Fill-1" fill="#F3B329" sketch:type="MSShapeGroup"></path>
            <path d="M55.213,86.517 L86.96,118.258 L95.274,109.945 L63.528,78.195 L55.213,86.517" id="Fill-2" fill="#F3B329" sketch:type="MSShapeGroup"></path>
            <path d="M117.31,131.981 L107.767,122.412 L99.425,130.724 L108.989,140.298 L117.31,131.981" id="Fill-3" fill="#F3B329" sketch:type="MSShapeGroup"></path>
            <path d="M31.874,18.956 L41.449,28.53 L49.763,20.212 L40.206,10.641 L31.874,18.956" id="Fill-4" fill="#F3B329" sketch:type="MSShapeGroup"></path>
            <path d="M62.979,32.105 L54.67,40.419 L86.161,71.935 L94.484,63.612 L62.979,32.105" id="Fill-5" fill="#F3B329" sketch:type="MSShapeGroup"></path>
            <path d="M99.985,85.757 L131.913,117.669 L140.226,109.364 L108.309,77.446 L99.985,85.757" id="Fill-6" fill="#F3B329" sketch:type="MSShapeGroup"></path>
            <path d="M64.185,54.442 L54.196,64.432 L54.226,64.46 L41.437,77.25 L41.409,77.221 L31.944,86.688 L41.251,95.997 L59.454,77.796 L63.527,73.718 L63.529,73.722 L73.498,63.754 L64.185,54.442" id="Fill-7" fill="#F3B329" sketch:type="MSShapeGroup"></path>
            <path d="M54.226,64.46 L54.196,64.432 L41.409,77.221 L41.437,77.25 L54.226,64.46" id="Fill-8" fill="#F3B329" sketch:type="MSShapeGroup"></path>
            <path d="M59.454,77.796 L63.529,73.722 L63.527,73.718 L59.454,77.796" id="Fill-9" fill="#F3B329" sketch:type="MSShapeGroup"></path>
            <path d="M98.958,63.612 L98.964,63.616 L86.165,76.416 L86.159,76.412 L76.216,86.354 L85.528,95.667 L116.852,64.341 L107.542,55.029 L98.958,63.612" id="Fill-10" fill="#F3B329" sketch:type="MSShapeGroup"></path>
            <path d="M98.964,63.616 L98.958,63.612 L86.159,76.412 L86.165,76.416 L98.964,63.616" id="Fill-11" fill="#F3B329" sketch:type="MSShapeGroup"></path>
            <path d="M128.809,33.77 L120.356,42.219 L129.654,51.539 L138.12,43.074 L128.809,33.77" id="Fill-12" fill="#F3B329" sketch:type="MSShapeGroup"></path>
            <path d="M63.237,99.349 L31.841,130.741 L41.152,140.042 L72.553,108.652 L63.237,99.349" id="Fill-13" fill="#F3B329" sketch:type="MSShapeGroup"></path>
            <path d="M19.326,117.937 L28.901,108.357 L19.585,99.053 L10.014,108.63 L19.326,117.937" id="Fill-14" fill="#F3B329" sketch:type="MSShapeGroup"></path>
            <path d="M86.341,50.915 L115.855,21.403 L106.543,12.099 L77.028,41.605 L86.341,50.915" id="Fill-15" fill="#F3B329" sketch:type="MSShapeGroup"></path>
            <path d="M27.324,63.188 L19.435,55.282 L0,74.726 L41.623,116.318 L49.341,108.598 L15.665,74.871 L27.324,63.188" id="Fill-16" fill="#F3B329" sketch:type="MSShapeGroup"></path>
            <path d="M107.728,117.895 L107.773,117.941 L117.709,108.038 L109.737,100.104 L74.451,135.35 L62.441,123.354 L54.691,131.103 L74.596,151 L94.948,130.72 L94.936,130.707 L107.728,117.895" id="Fill-17" fill="#F3B329" sketch:type="MSShapeGroup"></path>
            <path d="M107.728,117.895 L94.936,130.707 L94.948,130.72 L107.773,117.941 L107.728,117.895" id="Fill-18" fill="#F3B329" sketch:type="MSShapeGroup"></path>
            <path d="M121.394,64.275 L121.327,64.343 L133.407,76.424 L122.685,87.097 L130.593,95.008 L149.615,75.999 L107.727,34.112 L99.41,42.421 L107.542,50.555 L107.615,50.483 L121.394,64.275" id="Fill-19" fill="#F3B329" sketch:type="MSShapeGroup"></path>
            <path d="M121.394,64.275 L107.615,50.483 L107.542,50.555 L121.327,64.343 L121.394,64.275" id="Fill-20" fill="#F3B329" sketch:type="MSShapeGroup"></path>
            <path d="M86.265,27.661 L94.592,19.298 L75.011,-0.272 L32.366,42.351 L40.265,50.256 L74.597,15.932 L86.265,27.661" id="Fill-21" fill="#F3B329" sketch:type="MSShapeGroup"></path>
            <path d="M192.106,16.348 C191.736,15.168 191.375,14.393 190.921,14.084 C190.574,13.846 189.928,13.794 189.646,13.794 C189.318,13.794 189.122,13.761 189.122,13.499 C189.122,13.275 189.394,13.22 189.828,13.22 C191.507,13.22 193.268,13.298 193.563,13.298 C193.854,13.298 195.268,13.22 197.128,13.22 C197.564,13.22 197.798,13.298 197.798,13.499 C197.798,13.761 197.536,13.794 197.217,13.794 C196.964,13.794 196.645,13.794 196.421,13.911 C196.13,14.047 196.065,14.266 196.065,14.614 C196.065,15.044 196.383,16.132 196.777,17.565 C197.316,19.693 200.301,29.432 200.881,31.226 L200.975,31.226 L207.2,14.497 C207.522,13.586 207.739,13.339 208.011,13.339 C208.362,13.339 208.517,13.827 208.948,14.859 L215.619,30.995 L215.712,30.995 C216.284,28.845 218.861,20.367 219.995,16.614 C220.201,15.879 220.302,15.205 220.302,14.744 C220.302,14.239 220.018,13.794 218.762,13.794 C218.449,13.794 218.223,13.687 218.223,13.499 C218.223,13.275 218.467,13.22 218.964,13.22 C220.659,13.22 222.005,13.298 222.294,13.298 C222.514,13.298 223.901,13.22 224.959,13.22 C225.307,13.22 225.537,13.275 225.537,13.471 C225.537,13.687 225.388,13.794 225.095,13.794 C224.768,13.794 224.323,13.827 223.967,13.948 C223.191,14.239 222.85,15.518 222.159,17.359 C220.698,21.401 217.324,31.609 215.75,36.425 C215.394,37.55 215.234,37.936 214.813,37.936 C214.485,37.936 214.303,37.55 213.82,36.351 L207.145,20.272 L207.075,20.272 C206.469,21.912 202.193,33.278 200.815,36.223 C200.196,37.55 200.046,37.936 199.661,37.936 C199.336,37.936 199.213,37.586 198.923,36.744 L192.106,16.348" id="Fill-22" fill="#1A1918" sketch:type="MSShapeGroup"></path>
            <path d="M253.078,25.961 C253.078,18.764 248.937,14.299 243.67,14.299 C239.98,14.299 235.767,16.348 235.767,24.351 C235.767,31.032 239.475,36.332 245.636,36.332 C247.889,36.332 253.078,35.243 253.078,25.961 L253.078,25.961 Z M231.344,25.352 C231.344,19.856 234.966,12.767 244.608,12.767 C252.6,12.767 257.581,17.409 257.581,24.771 C257.581,32.126 252.431,37.936 244.289,37.936 C235.069,37.936 231.344,31.032 231.344,25.352 L231.344,25.352 Z" id="Fill-23" fill="#1A1918" sketch:type="MSShapeGroup"></path>
            <path d="M273.111,25.061 C273.111,25.417 273.175,25.535 273.399,25.642 C274.06,25.866 275.042,25.961 275.84,25.961 C277.115,25.961 277.538,25.825 278.125,25.417 C279.084,24.705 280.012,23.22 280.012,20.581 C280.012,16.033 277.008,14.723 275.097,14.723 C274.295,14.723 273.719,14.744 273.399,14.859 C273.175,14.918 273.111,15.044 273.111,15.3 L273.111,25.061 L273.111,25.061 Z M269.326,22.525 C269.326,17.648 269.326,16.737 269.261,15.72 C269.198,14.614 268.94,14.107 267.883,13.878 C267.616,13.827 267.086,13.794 266.625,13.794 C266.271,13.794 266.073,13.718 266.073,13.499 C266.073,13.275 266.303,13.22 266.775,13.22 C268.492,13.22 270.514,13.298 271.19,13.298 C272.275,13.298 274.713,13.22 275.707,13.22 C277.735,13.22 279.894,13.413 281.618,14.591 C282.526,15.205 283.801,16.849 283.801,18.991 C283.801,21.37 282.809,23.535 279.567,26.171 C282.423,29.778 284.636,32.639 286.531,34.622 C288.327,36.483 289.644,36.706 290.135,36.812 C290.479,36.88 290.778,36.905 291.025,36.905 C291.288,36.905 291.415,37.018 291.415,37.171 C291.415,37.41 291.195,37.484 290.799,37.484 L287.754,37.484 C285.952,37.484 285.147,37.317 284.327,36.88 C282.941,36.137 281.71,34.622 279.921,32.157 C278.637,30.382 277.169,28.208 276.736,27.712 C276.588,27.539 276.39,27.502 276.166,27.502 L273.369,27.428 C273.214,27.428 273.111,27.502 273.111,27.683 L273.111,28.145 C273.111,31.127 273.111,33.661 273.27,35.012 C273.369,35.939 273.55,36.656 274.53,36.773 C275.012,36.85 275.707,36.905 276.09,36.905 C276.351,36.905 276.494,37.018 276.494,37.171 C276.494,37.391 276.264,37.484 275.84,37.484 C273.981,37.484 271.604,37.391 271.126,37.391 C270.514,37.391 268.492,37.484 267.206,37.484 C266.775,37.484 266.561,37.391 266.561,37.171 C266.561,37.018 266.689,36.905 267.086,36.905 C267.56,36.905 267.943,36.85 268.232,36.773 C268.871,36.656 269.036,35.939 269.163,35.012 C269.326,33.661 269.326,31.127 269.326,28.178 L269.326,22.525 L269.326,22.525 Z" id="Fill-24" fill="#1A1918" sketch:type="MSShapeGroup"></path>
            <path d="M302.616,28.178 C302.616,32.276 302.616,34.497 303.289,35.074 C303.833,35.564 304.675,35.79 307.168,35.79 C308.874,35.79 310.129,35.747 310.931,34.88 C311.329,34.468 311.704,33.559 311.759,32.964 C311.795,32.672 311.852,32.473 312.111,32.473 C312.35,32.473 312.379,32.639 312.379,33.014 C312.379,33.381 312.15,35.79 311.895,36.706 C311.704,37.41 311.535,37.586 309.866,37.586 C307.561,37.586 305.895,37.513 304.447,37.484 C302.999,37.41 301.845,37.391 300.525,37.391 C300.179,37.391 299.456,37.391 298.694,37.41 C297.958,37.41 297.128,37.484 296.492,37.484 C296.069,37.484 295.835,37.391 295.835,37.171 C295.835,37.018 295.981,36.905 296.348,36.905 C296.839,36.905 297.218,36.85 297.509,36.773 C298.165,36.656 298.315,35.939 298.436,35.012 C298.601,33.661 298.601,31.127 298.601,28.178 L298.601,22.525 C298.601,17.648 298.601,16.737 298.539,15.72 C298.473,14.614 298.209,14.107 297.161,13.878 C296.911,13.827 296.506,13.794 296.094,13.794 C295.742,13.794 295.55,13.718 295.55,13.499 C295.55,13.275 295.78,13.22 296.252,13.22 C297.767,13.22 299.786,13.298 300.657,13.298 C301.427,13.298 303.775,13.22 305.022,13.22 C305.473,13.22 305.704,13.275 305.704,13.499 C305.704,13.718 305.505,13.794 305.119,13.794 C304.77,13.794 304.263,13.827 303.866,13.878 C302.999,14.047 302.735,14.591 302.679,15.72 C302.616,16.737 302.616,17.648 302.616,22.525 L302.616,28.178" id="Fill-25" fill="#1A1918" sketch:type="MSShapeGroup"></path>
            <path d="M327.078,26.056 C327.078,29.45 327.098,31.924 327.143,32.544 C327.172,33.344 327.247,34.622 327.502,34.983 C327.915,35.589 329.167,36.26 331.698,36.26 C334.977,36.26 337.165,35.62 339.081,33.949 C341.153,32.178 341.781,29.263 341.781,25.961 C341.781,21.885 340.08,19.242 338.708,17.924 C335.746,15.102 332.086,14.723 329.581,14.723 C328.938,14.723 327.753,14.809 327.502,14.941 C327.211,15.073 327.098,15.232 327.098,15.58 C327.078,16.684 327.078,19.477 327.078,22.017 L327.078,26.056 L327.078,26.056 Z M323.069,22.525 C323.069,17.648 323.069,16.737 322.994,15.72 C322.929,14.614 322.673,14.107 321.617,13.878 C321.364,13.827 320.813,13.794 320.371,13.794 C320.004,13.794 319.813,13.718 319.813,13.499 C319.813,13.275 320.049,13.22 320.522,13.22 C322.225,13.22 324.24,13.298 325.148,13.298 C326.141,13.298 328.167,13.22 330.097,13.22 C334.11,13.22 339.473,13.22 342.975,16.869 C344.583,18.544 346.082,21.211 346.082,25.022 C346.082,29.071 344.386,32.157 342.585,33.99 C341.105,35.494 337.77,37.776 331.833,37.776 C330.678,37.776 329.356,37.677 328.139,37.586 C326.916,37.484 325.785,37.391 325,37.391 C324.638,37.391 323.93,37.391 323.154,37.41 C322.418,37.41 321.588,37.484 320.939,37.484 C320.522,37.484 320.309,37.391 320.309,37.171 C320.309,37.018 320.437,36.905 320.813,36.905 C321.298,36.905 321.691,36.85 321.973,36.773 C322.619,36.656 322.779,35.939 322.909,35.012 C323.069,33.661 323.069,31.127 323.069,28.178 L323.069,22.525 L323.069,22.525 Z" id="Fill-26" fill="#1A1918" sketch:type="MSShapeGroup"></path>
            <path d="M198.763,77.169 C198.763,77.531 198.829,77.663 199.044,77.755 C199.719,77.979 200.693,78.074 201.485,78.074 C202.778,78.074 203.195,77.942 203.768,77.531 C204.741,76.817 205.656,75.351 205.656,72.714 C205.656,68.152 202.646,66.84 200.754,66.84 C199.953,66.84 199.368,66.869 199.044,66.963 C198.829,67.033 198.763,67.149 198.763,67.41 L198.763,77.169 L198.763,77.169 Z M194.969,74.644 C194.969,69.758 194.969,68.854 194.911,67.832 C194.847,66.745 194.593,66.226 193.516,66.005 C193.268,65.939 192.725,65.913 192.279,65.913 C191.932,65.913 191.736,65.847 191.736,65.608 C191.736,65.388 191.952,65.315 192.448,65.315 C194.135,65.315 196.158,65.427 196.837,65.427 C197.92,65.427 200.355,65.315 201.368,65.315 C203.377,65.315 205.542,65.528 207.274,66.718 C208.165,67.326 209.459,68.961 209.459,71.112 C209.459,73.479 208.452,75.668 205.214,78.304 C208.072,81.897 210.288,84.756 212.181,86.749 C213.975,88.606 215.291,88.838 215.774,88.924 C216.136,88.989 216.416,89.037 216.677,89.037 C216.921,89.037 217.063,89.115 217.063,89.279 C217.063,89.542 216.837,89.598 216.454,89.598 L213.399,89.598 C211.59,89.598 210.803,89.444 209.959,88.989 C208.583,88.249 207.364,86.749 205.565,84.272 C204.282,82.514 202.811,80.324 202.389,79.849 C202.23,79.647 202.028,79.622 201.798,79.622 L199.025,79.557 C198.861,79.557 198.763,79.622 198.763,79.808 L198.763,80.266 C198.763,83.247 198.763,85.777 198.923,87.129 C199.025,88.055 199.213,88.768 200.174,88.896 C200.656,88.962 201.368,89.037 201.743,89.037 C202.005,89.037 202.136,89.115 202.136,89.279 C202.136,89.5 201.902,89.598 201.485,89.598 C199.625,89.598 197.254,89.5 196.777,89.5 C196.158,89.5 194.135,89.598 192.86,89.598 C192.448,89.598 192.205,89.5 192.205,89.279 C192.205,89.115 192.341,89.037 192.725,89.037 C193.208,89.037 193.596,88.962 193.891,88.896 C194.528,88.768 194.692,88.055 194.82,87.129 C194.969,85.777 194.969,83.247 194.969,80.286 L194.969,74.644 L194.969,74.644 Z" id="Fill-27" fill="#1A1918" sketch:type="MSShapeGroup"></path>
            <path d="M224.248,74.644 C224.248,69.758 224.248,68.854 224.187,67.832 C224.127,66.745 223.864,66.226 222.805,66.005 C222.547,65.939 221.99,65.913 221.561,65.913 C221.203,65.913 221,65.847 221,65.608 C221,65.388 221.232,65.315 221.713,65.315 C222.581,65.315 223.518,65.355 224.323,65.355 C225.147,65.388 225.888,65.427 226.338,65.427 C227.37,65.427 233.75,65.427 234.369,65.388 C234.966,65.315 235.483,65.262 235.745,65.2 C235.903,65.171 236.101,65.068 236.251,65.068 C236.41,65.068 236.449,65.2 236.449,65.355 C236.449,65.583 236.297,65.973 236.185,67.45 C236.166,67.767 236.101,69.192 236.035,69.56 C236.004,69.726 235.93,69.913 235.708,69.913 C235.483,69.913 235.421,69.758 235.421,69.472 C235.421,69.247 235.399,68.693 235.238,68.319 C235.002,67.738 234.686,67.347 233.076,67.149 C232.532,67.087 229.158,67.033 228.519,67.033 C228.356,67.033 228.296,67.12 228.296,67.347 L228.296,75.478 C228.296,75.699 228.333,75.825 228.519,75.825 C229.223,75.825 232.924,75.825 233.656,75.758 C234.434,75.699 234.911,75.604 235.192,75.281 C235.421,75.022 235.547,74.861 235.708,74.861 C235.844,74.861 235.93,74.927 235.93,75.122 C235.93,75.314 235.811,75.825 235.679,77.464 C235.655,78.102 235.547,79.39 235.547,79.622 C235.547,79.872 235.547,80.22 235.256,80.22 C235.032,80.22 234.966,80.096 234.966,79.94 C234.95,79.622 234.95,79.206 234.845,78.777 C234.686,78.14 234.245,77.663 233.046,77.531 C232.437,77.464 229.252,77.427 228.493,77.427 C228.333,77.427 228.296,77.559 228.296,77.755 L228.296,80.286 C228.296,81.377 228.259,84.342 228.296,85.275 C228.356,87.47 228.867,87.969 232.14,87.969 C232.98,87.969 234.33,87.969 235.167,87.59 C236.004,87.19 236.387,86.532 236.621,85.205 C236.678,84.838 236.737,84.717 236.967,84.717 C237.224,84.717 237.224,84.982 237.224,85.299 C237.224,86.04 236.967,88.227 236.803,88.864 C236.569,89.698 236.297,89.698 235.076,89.698 C232.664,89.698 230.905,89.624 229.514,89.598 C228.136,89.542 227.134,89.5 226.174,89.5 C225.821,89.5 225.116,89.5 224.341,89.542 C223.605,89.542 222.777,89.598 222.129,89.598 C221.713,89.598 221.474,89.5 221.474,89.279 C221.474,89.115 221.621,89.037 221.99,89.037 C222.475,89.037 222.871,88.962 223.162,88.896 C223.802,88.768 223.955,88.055 224.088,87.129 C224.248,85.777 224.248,83.247 224.248,80.286 L224.248,74.644" id="Fill-28" fill="#1A1918" sketch:type="MSShapeGroup"></path>
            <path d="M247.823,89.223 C247.296,88.989 247.206,88.838 247.206,88.128 C247.206,86.356 247.325,84.435 247.354,83.925 C247.391,83.438 247.494,83.096 247.746,83.096 C248.038,83.096 248.067,83.381 248.067,83.635 C248.067,84.043 248.202,84.717 248.357,85.275 C249.059,87.648 250.96,88.513 252.958,88.513 C255.833,88.513 257.252,86.543 257.252,84.838 C257.252,83.269 256.76,81.802 254.104,79.713 L252.628,78.551 C249.096,75.796 247.877,73.538 247.877,70.949 C247.877,67.41 250.831,64.871 255.3,64.871 C257.378,64.871 258.728,65.2 259.566,65.427 C259.859,65.501 260.021,65.583 260.021,65.81 C260.021,66.226 259.878,67.149 259.878,69.662 C259.878,70.372 259.78,70.626 259.533,70.626 C259.298,70.626 259.208,70.432 259.208,70.053 C259.208,69.758 259.057,68.759 258.379,67.927 C257.889,67.326 256.966,66.358 254.868,66.358 C252.497,66.358 251.055,67.738 251.055,69.662 C251.055,71.145 251.805,72.255 254.466,74.294 L255.354,74.964 C259.252,77.882 260.621,80.096 260.621,83.154 C260.621,85.006 259.918,87.236 257.614,88.736 C256.011,89.756 254.212,90.061 252.497,90.061 C250.643,90.061 249.2,89.828 247.823,89.223" id="Fill-29" fill="#1A1918" sketch:type="MSShapeGroup"></path>
            <path d="M291.541,78.074 C291.541,70.887 287.4,66.417 282.144,66.417 C278.446,66.417 274.236,68.48 274.236,76.471 C274.236,83.154 277.935,88.447 284.092,88.447 C286.349,88.447 291.541,87.351 291.541,78.074 L291.541,78.074 Z M269.803,77.464 C269.803,71.979 273.428,64.871 283.069,64.871 C291.052,64.871 296.046,69.538 296.046,76.894 C296.046,84.248 290.898,90.061 282.748,90.061 C273.534,90.061 269.803,83.154 269.803,77.464 L269.803,77.464 Z" id="Fill-30" fill="#1A1918" sketch:type="MSShapeGroup"></path>
            <path d="M306.725,74.644 C306.725,69.758 306.725,68.854 306.664,67.832 C306.597,66.745 306.339,66.226 305.277,66.005 C305.022,65.939 304.469,65.913 304.021,65.913 C303.665,65.913 303.477,65.847 303.477,65.608 C303.477,65.388 303.701,65.315 304.188,65.315 C305.884,65.315 307.907,65.427 308.874,65.427 C309.638,65.427 311.674,65.315 312.818,65.315 C313.306,65.315 313.529,65.388 313.529,65.608 C313.529,65.847 313.334,65.913 313.016,65.913 C312.66,65.913 312.463,65.939 312.079,66.005 C311.208,66.156 310.968,66.718 310.892,67.832 C310.836,68.854 310.836,69.758 310.836,74.644 L310.836,79.136 C310.836,83.784 311.759,85.749 313.334,87.04 C314.779,88.227 316.263,88.352 317.343,88.352 C318.76,88.352 320.5,87.904 321.784,86.618 C323.547,84.838 323.639,81.959 323.639,78.651 L323.639,74.644 C323.639,69.758 323.639,68.854 323.584,67.832 C323.518,66.745 323.257,66.226 322.202,66.005 C321.945,65.939 321.401,65.913 321.035,65.913 C320.69,65.913 320.5,65.847 320.5,65.608 C320.5,65.388 320.714,65.315 321.18,65.315 C322.802,65.315 324.82,65.427 324.82,65.427 C325.256,65.427 327.267,65.315 328.521,65.315 C328.981,65.315 329.191,65.388 329.191,65.608 C329.191,65.847 329.007,65.913 328.615,65.913 C328.266,65.913 328.062,65.939 327.698,66.005 C326.825,66.156 326.554,66.718 326.497,67.832 C326.433,68.854 326.433,69.758 326.433,74.644 L326.433,78.074 C326.433,81.644 326.087,85.419 323.378,87.734 C321.104,89.698 318.797,90.061 316.697,90.061 C315.011,90.061 311.918,89.955 309.581,87.83 C307.936,86.356 306.725,83.982 306.725,79.33 L306.725,74.644" id="Fill-31" fill="#1A1918" sketch:type="MSShapeGroup"></path>
            <path d="M344.287,77.169 C344.287,77.531 344.347,77.663 344.576,77.755 C345.251,77.979 346.21,78.074 347.016,78.074 C348.301,78.074 348.713,77.942 349.294,77.531 C350.26,76.817 351.188,75.351 351.188,72.714 C351.188,68.152 348.169,66.84 346.277,66.84 C345.472,66.84 344.905,66.869 344.576,66.963 C344.347,67.033 344.287,67.149 344.287,67.41 L344.287,77.169 L344.287,77.169 Z M340.497,74.644 C340.497,69.758 340.497,68.854 340.431,67.832 C340.365,66.745 340.116,66.226 339.053,66.005 C338.786,65.939 338.249,65.913 337.801,65.913 C337.453,65.913 337.245,65.847 337.245,65.608 C337.245,65.388 337.469,65.315 337.966,65.315 C339.653,65.315 341.685,65.427 342.357,65.427 C343.458,65.427 345.889,65.315 346.887,65.315 C348.91,65.315 351.067,65.528 352.788,66.718 C353.699,67.326 354.981,68.961 354.981,71.112 C354.981,73.479 353.987,75.668 350.735,78.304 C353.593,81.897 355.806,84.756 357.698,86.749 C359.497,88.606 360.82,88.838 361.297,88.924 C361.654,88.989 361.948,89.037 362.201,89.037 C362.458,89.037 362.584,89.115 362.584,89.279 C362.584,89.542 362.365,89.598 361.966,89.598 L358.926,89.598 C357.136,89.598 356.32,89.444 355.497,88.989 C354.111,88.249 352.883,86.749 351.092,84.272 C349.803,82.514 348.331,80.324 347.912,79.849 C347.75,79.647 347.552,79.622 347.335,79.622 L344.553,79.557 C344.386,79.557 344.287,79.622 344.287,79.808 L344.287,80.266 C344.287,83.247 344.287,85.777 344.451,87.129 C344.553,88.055 344.73,88.768 345.706,88.896 C346.178,88.962 346.887,89.037 347.27,89.037 C347.527,89.037 347.653,89.115 347.653,89.279 C347.653,89.5 347.428,89.598 347.016,89.598 C345.154,89.598 342.774,89.5 342.295,89.5 C341.685,89.5 339.653,89.598 338.38,89.598 C337.966,89.598 337.742,89.5 337.742,89.279 C337.742,89.115 337.859,89.037 338.249,89.037 C338.736,89.037 339.12,88.962 339.404,88.896 C340.046,88.768 340.206,88.055 340.338,87.129 C340.497,85.777 340.497,83.247 340.497,80.286 L340.497,74.644 L340.497,74.644 Z" id="Fill-32" fill="#1A1918" sketch:type="MSShapeGroup"></path>
            <path d="M370.094,86.543 C366.939,83.784 366.117,80.192 366.117,77.08 C366.117,74.906 366.789,71.112 369.878,68.282 C372.175,66.156 375.229,64.871 380.016,64.871 C382.004,64.871 383.199,65.009 384.669,65.2 C385.893,65.355 386.922,65.66 387.886,65.74 C388.232,65.777 388.369,65.939 388.369,66.137 C388.369,66.395 388.27,66.764 388.207,67.89 C388.14,68.961 388.167,70.725 388.103,71.359 C388.075,71.843 388.008,72.104 387.718,72.104 C387.466,72.104 387.405,71.843 387.405,71.392 C387.368,70.399 386.95,69.291 386.152,68.446 C385.093,67.326 382.593,66.451 379.633,66.451 C376.84,66.451 375.004,67.149 373.597,68.446 C371.251,70.588 370.638,73.637 370.638,76.753 C370.638,84.397 376.457,88.183 380.756,88.183 C383.607,88.183 385.342,87.874 386.622,86.385 C387.175,85.777 387.596,84.838 387.718,84.272 C387.815,83.751 387.886,83.635 388.14,83.635 C388.369,83.635 388.43,83.854 388.43,84.117 C388.43,84.493 388.047,87.293 387.718,88.381 C387.548,88.924 387.43,89.094 386.894,89.317 C385.6,89.828 383.16,90.061 381.104,90.061 C376.71,90.061 373.017,89.094 370.094,86.543" id="Fill-33" fill="#1A1918" sketch:type="MSShapeGroup"></path>
            <path d="M400.328,74.644 C400.328,69.758 400.328,68.854 400.274,67.832 C400.208,66.745 399.945,66.226 398.89,66.005 C398.635,65.939 398.091,65.913 397.638,65.913 C397.286,65.913 397.087,65.847 397.087,65.608 C397.087,65.388 397.315,65.315 397.782,65.315 C398.671,65.315 399.59,65.355 400.396,65.355 C401.245,65.388 401.98,65.427 402.424,65.427 C403.451,65.427 409.837,65.427 410.454,65.388 C411.057,65.315 411.572,65.262 411.828,65.2 C411.997,65.171 412.2,65.068 412.332,65.068 C412.509,65.068 412.528,65.2 412.528,65.355 C412.528,65.583 412.37,65.973 412.285,67.45 C412.25,67.767 412.2,69.192 412.125,69.56 C412.089,69.726 412.024,69.913 411.807,69.913 C411.572,69.913 411.508,69.758 411.508,69.472 C411.508,69.247 411.48,68.693 411.31,68.319 C411.09,67.738 410.767,67.347 409.167,67.149 C408.623,67.087 405.243,67.033 404.612,67.033 C404.444,67.033 404.377,67.12 404.377,67.347 L404.377,75.478 C404.377,75.699 404.425,75.825 404.612,75.825 C405.306,75.825 409.016,75.825 409.747,75.758 C410.515,75.699 410.992,75.604 411.284,75.281 C411.508,75.022 411.64,74.861 411.807,74.861 C411.92,74.861 412.024,74.927 412.024,75.122 C412.024,75.314 411.892,75.825 411.77,77.464 C411.727,78.102 411.64,79.39 411.64,79.622 C411.64,79.872 411.64,80.22 411.346,80.22 C411.127,80.22 411.057,80.096 411.057,79.94 C411.035,79.622 411.035,79.206 410.936,78.777 C410.767,78.14 410.318,77.663 409.127,77.531 C408.52,77.464 405.341,77.427 404.585,77.427 C404.425,77.427 404.377,77.559 404.377,77.755 L404.377,80.286 C404.377,81.377 404.354,84.342 404.377,85.275 C404.444,87.47 404.968,87.969 408.234,87.969 C409.072,87.969 410.417,87.969 411.255,87.59 C412.089,87.19 412.474,86.532 412.708,85.205 C412.752,84.838 412.829,84.717 413.055,84.717 C413.311,84.717 413.311,84.982 413.311,85.299 C413.311,86.04 413.055,88.227 412.894,88.864 C412.668,89.698 412.37,89.698 411.16,89.698 C408.758,89.698 406.991,89.624 405.605,89.598 C404.216,89.542 403.223,89.5 402.279,89.5 C401.914,89.5 401.206,89.5 400.441,89.542 C399.692,89.542 398.86,89.598 398.218,89.598 C397.782,89.598 397.576,89.5 397.576,89.279 C397.576,89.115 397.708,89.037 398.091,89.037 C398.578,89.037 398.96,88.962 399.245,88.896 C399.889,88.768 400.05,88.055 400.179,87.129 C400.328,85.777 400.328,83.247 400.328,80.286 L400.328,74.644" id="Fill-34" fill="#1A1918" sketch:type="MSShapeGroup"></path>
            <path d="M423.904,89.223 C423.398,88.989 423.291,88.838 423.291,88.128 C423.291,86.356 423.416,84.435 423.456,83.925 C423.492,83.438 423.575,83.096 423.829,83.096 C424.128,83.096 424.147,83.381 424.147,83.635 C424.147,84.043 424.273,84.717 424.448,85.275 C425.146,87.648 427.051,88.513 429.04,88.513 C431.918,88.513 433.34,86.543 433.34,84.838 C433.34,83.269 432.86,81.802 430.191,79.713 L428.713,78.551 C425.183,75.796 423.97,73.538 423.97,70.949 C423.97,67.41 426.919,64.871 431.381,64.871 C433.469,64.871 434.828,65.2 435.654,65.427 C435.944,65.501 436.104,65.583 436.104,65.81 C436.104,66.226 435.983,67.149 435.983,69.662 C435.983,70.372 435.877,70.626 435.616,70.626 C435.4,70.626 435.292,70.432 435.292,70.053 C435.292,69.758 435.138,68.759 434.468,67.927 C433.98,67.326 433.047,66.358 430.956,66.358 C428.588,66.358 427.147,67.738 427.147,69.662 C427.147,71.145 427.888,72.255 430.555,74.294 L431.445,74.964 C435.333,77.882 436.712,80.096 436.712,83.154 C436.712,85.006 436,87.236 433.695,88.736 C432.082,89.756 430.286,90.061 428.588,90.061 C426.724,90.061 425.281,89.828 423.904,89.223" id="Fill-35" fill="#1A1918" sketch:type="MSShapeGroup"></path>
            <path d="M194.969,126.761 C194.969,121.888 194.969,120.99 194.911,119.956 C194.847,118.86 194.528,118.32 193.816,118.159 C193.469,118.056 193.034,118.043 192.654,118.043 C192.341,118.043 192.148,117.969 192.148,117.698 C192.148,117.521 192.41,117.451 192.907,117.451 C194.135,117.451 196.158,117.541 197.085,117.541 C197.892,117.541 199.789,117.451 201.011,117.451 C201.424,117.451 201.677,117.521 201.677,117.698 C201.677,117.969 201.485,118.043 201.161,118.043 C200.853,118.043 200.59,118.056 200.196,118.126 C199.336,118.288 199.082,118.831 199.025,119.956 C198.951,120.99 198.951,121.888 198.951,126.761 L198.951,132.409 C198.951,135.527 198.951,138.065 199.082,139.454 C199.185,140.318 199.405,140.887 200.355,141.011 C200.815,141.081 201.517,141.151 202.005,141.151 C202.356,141.151 202.511,141.246 202.511,141.41 C202.511,141.628 202.263,141.723 201.902,141.723 C199.789,141.723 197.761,141.628 196.893,141.628 C196.158,141.628 194.135,141.723 192.86,141.723 C192.448,141.723 192.205,141.628 192.205,141.41 C192.205,141.246 192.341,141.151 192.725,141.151 C193.208,141.151 193.596,141.081 193.891,141.011 C194.528,140.887 194.715,140.356 194.82,139.416 C194.969,138.065 194.969,135.527 194.969,132.409 L194.969,126.761" id="Fill-36" fill="#1A1918" sketch:type="MSShapeGroup"></path>
            <path d="M216.321,137.365 C216.387,139.866 216.8,140.702 217.446,140.924 C217.989,141.114 218.599,141.151 219.114,141.151 C219.475,141.151 219.657,141.212 219.657,141.41 C219.657,141.658 219.375,141.723 218.925,141.723 C216.837,141.723 215.538,141.628 214.939,141.628 C214.654,141.628 213.146,141.723 211.468,141.723 C211.061,141.723 210.766,141.699 210.766,141.41 C210.766,141.212 210.952,141.151 211.271,141.151 C211.693,141.151 212.273,141.114 212.724,140.995 C213.567,140.735 213.684,139.791 213.717,137.01 L214.017,117.995 C214.017,117.352 214.101,116.903 214.429,116.903 C214.775,116.903 215.065,117.324 215.619,117.895 C215.993,118.32 220.885,123.551 225.57,128.207 C227.757,130.395 232.083,135.021 232.624,135.527 L232.799,135.527 L232.474,121.109 C232.437,119.144 232.14,118.542 231.377,118.216 C230.905,118.043 230.124,118.043 229.683,118.043 C229.297,118.043 229.158,117.937 229.158,117.739 C229.158,117.475 229.524,117.451 230.002,117.451 C231.674,117.451 233.215,117.541 233.888,117.541 C234.245,117.541 235.458,117.451 237.028,117.451 C237.447,117.451 237.774,117.475 237.774,117.739 C237.774,117.937 237.58,118.043 237.186,118.043 C236.869,118.043 236.621,118.043 236.223,118.126 C235.323,118.39 235.076,119.058 235.042,120.858 L234.686,141.114 C234.686,141.819 234.554,142.124 234.264,142.124 C233.916,142.124 233.529,141.752 233.178,141.41 C231.16,139.474 227.044,135.272 223.705,131.964 C220.201,128.491 216.639,124.483 216.059,123.874 L215.975,123.874 L216.321,137.365" id="Fill-37" fill="#1A1918" sketch:type="MSShapeGroup"></path>
            <path d="M248.202,141.349 C247.683,141.114 247.597,140.954 247.597,140.252 C247.597,138.49 247.718,136.561 247.746,136.042 C247.785,135.569 247.877,135.21 248.132,135.21 C248.42,135.21 248.459,135.499 248.459,135.762 C248.459,136.166 248.585,136.841 248.75,137.385 C249.453,139.763 251.346,140.636 253.341,140.636 C256.217,140.636 257.642,138.679 257.642,136.973 C257.642,135.409 257.154,133.929 254.495,131.832 L253.012,130.683 C249.48,127.911 248.262,125.674 248.262,123.074 C248.262,119.536 251.209,117.01 255.673,117.01 C257.764,117.01 259.113,117.324 259.95,117.541 C260.242,117.616 260.4,117.698 260.4,117.937 C260.4,118.362 260.275,119.284 260.275,121.781 C260.275,122.489 260.18,122.749 259.918,122.749 C259.694,122.749 259.59,122.563 259.59,122.167 C259.59,121.888 259.434,120.891 258.767,120.063 C258.279,119.44 257.342,118.485 255.265,118.485 C252.888,118.485 251.449,119.865 251.449,121.781 C251.449,123.263 252.188,124.379 254.849,126.411 L255.748,127.082 C259.628,129.999 261.003,132.223 261.003,135.272 C261.003,137.129 260.293,139.351 257.988,140.85 C256.394,141.879 254.587,142.181 252.888,142.181 C251.026,142.181 249.574,141.946 248.202,141.349" id="Fill-38" fill="#1A1918" sketch:type="MSShapeGroup"></path>
            <path d="M277.957,119.255 L273.175,119.374 C271.3,119.44 270.549,119.597 270.065,120.31 C269.744,120.795 269.568,121.174 269.508,121.426 C269.451,121.69 269.354,121.817 269.163,121.817 C268.94,121.817 268.871,121.661 268.871,121.306 C268.871,120.795 269.475,117.875 269.56,117.616 C269.653,117.183 269.744,117.01 269.924,117.01 C270.186,117.01 270.514,117.324 271.3,117.381 C272.241,117.475 273.457,117.541 274.516,117.541 L287.244,117.541 C288.261,117.541 288.967,117.451 289.45,117.381 C289.933,117.286 290.191,117.233 290.323,117.233 C290.549,117.233 290.577,117.417 290.577,117.895 C290.577,118.576 290.479,120.795 290.479,121.624 C290.451,121.954 290.388,122.139 290.191,122.139 C289.933,122.139 289.864,121.97 289.829,121.509 L289.817,121.142 C289.743,120.31 288.878,119.416 286.022,119.35 L281.974,119.255 L281.974,132.409 C281.974,135.367 281.974,137.9 282.144,139.281 C282.227,140.187 282.423,140.887 283.383,141.011 C283.834,141.081 284.541,141.151 285.019,141.151 C285.375,141.151 285.536,141.246 285.536,141.41 C285.536,141.628 285.276,141.723 284.926,141.723 C282.809,141.723 280.794,141.628 279.894,141.628 C279.145,141.628 277.115,141.723 275.84,141.723 C275.424,141.723 275.19,141.628 275.19,141.41 C275.19,141.246 275.33,141.151 275.707,141.151 C276.204,141.151 276.588,141.081 276.867,141.011 C277.517,140.887 277.701,140.187 277.795,139.26 C277.957,137.9 277.957,135.367 277.957,132.409 L277.957,119.255" id="Fill-39" fill="#1A1918" sketch:type="MSShapeGroup"></path>
            <path d="M301.529,126.761 C301.529,121.888 301.529,120.99 301.462,119.956 C301.398,118.86 301.069,118.32 300.373,118.159 C300.02,118.056 299.602,118.043 299.205,118.043 C298.887,118.043 298.694,117.969 298.694,117.698 C298.694,117.521 298.952,117.451 299.456,117.451 C300.686,117.451 302.718,117.541 303.645,117.541 C304.447,117.541 306.339,117.451 307.561,117.451 C307.975,117.451 308.231,117.521 308.231,117.698 C308.231,117.969 308.036,118.043 307.72,118.043 C307.403,118.043 307.152,118.056 306.76,118.126 C305.895,118.288 305.624,118.831 305.576,119.956 C305.505,120.99 305.505,121.888 305.505,126.761 L305.505,132.409 C305.505,135.527 305.505,138.065 305.624,139.454 C305.734,140.318 305.951,140.887 306.924,141.011 C307.361,141.081 308.074,141.151 308.565,141.151 C308.913,141.151 309.071,141.246 309.071,141.41 C309.071,141.628 308.799,141.723 308.451,141.723 C306.339,141.723 304.313,141.628 303.446,141.628 C302.718,141.628 300.686,141.723 299.4,141.723 C298.98,141.723 298.755,141.628 298.755,141.41 C298.755,141.246 298.887,141.151 299.274,141.151 C299.756,141.151 300.141,141.081 300.422,141.011 C301.069,140.887 301.258,140.356 301.355,139.416 C301.529,138.065 301.529,135.527 301.529,132.409 L301.529,126.761" id="Fill-40" fill="#1A1918" sketch:type="MSShapeGroup"></path>
            <path d="M325.337,119.255 L320.563,119.374 C318.703,119.44 317.926,119.597 317.438,120.31 C317.122,120.795 316.957,121.174 316.905,121.426 C316.829,121.69 316.735,121.817 316.548,121.817 C316.313,121.817 316.263,121.661 316.263,121.306 C316.263,120.795 316.866,117.875 316.931,117.616 C317.031,117.183 317.122,117.01 317.32,117.01 C317.574,117.01 317.898,117.324 318.703,117.381 C319.635,117.475 320.849,117.541 321.906,117.541 L334.623,117.541 C335.653,117.541 336.355,117.451 336.852,117.381 C337.319,117.286 337.583,117.233 337.703,117.233 C337.928,117.233 337.966,117.417 337.966,117.895 C337.966,118.576 337.863,120.795 337.863,121.624 C337.835,121.954 337.77,122.139 337.583,122.139 C337.319,122.139 337.257,121.97 337.22,121.509 L337.2,121.142 C337.133,120.31 336.256,119.416 333.414,119.35 L329.356,119.255 L329.356,132.409 C329.356,135.367 329.356,137.9 329.514,139.281 C329.613,140.187 329.803,140.887 330.769,141.011 C331.222,141.081 331.922,141.151 332.401,141.151 C332.767,141.151 332.928,141.246 332.928,141.41 C332.928,141.628 332.667,141.723 332.305,141.723 C330.196,141.723 328.167,141.628 327.261,141.628 C326.537,141.628 324.511,141.723 323.217,141.723 C322.802,141.723 322.573,141.628 322.573,141.41 C322.573,141.246 322.713,141.151 323.092,141.151 C323.576,141.151 323.959,141.081 324.24,141.011 C324.894,140.887 325.083,140.187 325.187,139.26 C325.337,137.9 325.337,135.367 325.337,132.409 L325.337,119.255" id="Fill-41" fill="#1A1918" sketch:type="MSShapeGroup"></path>
            <path d="M347.527,126.761 C347.527,121.888 347.527,120.99 347.456,119.956 C347.391,118.86 347.142,118.362 346.082,118.126 C345.813,118.056 345.283,118.043 344.835,118.043 C344.487,118.043 344.287,117.969 344.287,117.739 C344.287,117.521 344.505,117.451 344.994,117.451 C346.689,117.451 348.713,117.541 349.678,117.541 C350.447,117.541 352.46,117.451 353.628,117.451 C354.111,117.451 354.335,117.521 354.335,117.739 C354.335,117.969 354.139,118.043 353.818,118.043 C353.474,118.043 353.266,118.056 352.883,118.126 C352.03,118.288 351.758,118.831 351.702,119.956 C351.636,120.99 351.636,121.888 351.636,126.761 L351.636,131.255 C351.636,135.916 352.568,137.88 354.139,139.157 C355.582,140.356 357.06,140.475 358.158,140.475 C359.563,140.475 361.287,140.027 362.584,138.741 C364.352,136.973 364.44,134.09 364.44,130.778 L364.44,126.761 C364.44,121.888 364.44,120.99 364.378,119.956 C364.331,118.86 364.07,118.362 363.002,118.126 C362.75,118.056 362.201,118.043 361.86,118.043 C361.484,118.043 361.287,117.969 361.287,117.739 C361.287,117.521 361.522,117.451 361.966,117.451 C363.62,117.451 365.635,117.541 365.664,117.541 C366.057,117.541 368.08,117.451 369.335,117.451 C369.777,117.451 370.001,117.521 370.001,117.739 C370.001,117.969 369.814,118.043 369.429,118.043 C369.069,118.043 368.885,118.056 368.493,118.126 C367.621,118.288 367.368,118.831 367.301,119.956 C367.236,120.99 367.236,121.888 367.236,126.761 L367.236,130.192 C367.236,133.76 366.881,137.55 364.187,139.866 C361.915,141.819 359.602,142.181 357.507,142.181 C355.806,142.181 352.722,142.085 350.384,139.977 C348.749,138.49 347.527,136.108 347.527,131.449 L347.527,126.761" id="Fill-42" fill="#1A1918" sketch:type="MSShapeGroup"></path>
            <path d="M385.565,119.255 L380.785,119.374 C378.92,119.44 378.155,119.597 377.674,120.31 C377.355,120.795 377.197,121.174 377.121,121.426 C377.065,121.69 376.961,121.817 376.77,121.817 C376.549,121.817 376.479,121.661 376.479,121.306 C376.479,120.795 377.085,117.875 377.149,117.616 C377.252,117.183 377.355,117.01 377.542,117.01 C377.795,117.01 378.114,117.324 378.92,117.381 C379.848,117.475 381.075,117.541 382.134,117.541 L394.848,117.541 C395.88,117.541 396.574,117.451 397.069,117.381 C397.547,117.286 397.8,117.233 397.945,117.233 C398.155,117.233 398.194,117.417 398.194,117.895 C398.194,118.576 398.091,120.795 398.091,121.624 C398.053,121.954 397.996,122.139 397.8,122.139 C397.547,122.139 397.471,121.97 397.455,121.509 L397.425,121.142 C397.35,120.31 396.489,119.416 393.64,119.35 L389.584,119.255 L389.584,132.409 C389.584,135.367 389.584,137.9 389.743,139.281 C389.845,140.187 390.043,140.887 390.989,141.011 C391.458,141.081 392.142,141.151 392.628,141.151 C392.993,141.151 393.152,141.246 393.152,141.41 C393.152,141.628 392.886,141.723 392.54,141.723 C390.408,141.723 388.393,141.628 387.504,141.628 C386.762,141.628 384.731,141.723 383.446,141.723 C383.034,141.723 382.809,141.628 382.809,141.41 C382.809,141.246 382.929,141.151 383.325,141.151 C383.802,141.151 384.187,141.081 384.472,141.011 C385.123,140.887 385.306,140.187 385.416,139.26 C385.565,137.9 385.565,135.367 385.565,132.409 L385.565,119.255" id="Fill-43" fill="#1A1918" sketch:type="MSShapeGroup"></path>
            <path d="M409.127,126.761 C409.127,121.888 409.127,120.99 409.072,119.956 C409.005,118.86 408.758,118.362 407.694,118.126 C407.432,118.056 406.888,118.043 406.431,118.043 C406.083,118.043 405.885,117.969 405.885,117.739 C405.885,117.521 406.112,117.451 406.6,117.451 C407.469,117.451 408.388,117.475 409.211,117.475 C410.038,117.521 410.767,117.541 411.216,117.541 C412.25,117.541 418.648,117.541 419.247,117.521 C419.855,117.451 420.375,117.381 420.633,117.324 C420.797,117.286 420.979,117.183 421.144,117.183 C421.302,117.183 421.337,117.324 421.337,117.475 C421.337,117.698 421.168,118.089 421.084,119.564 C421.045,119.885 420.979,121.306 420.905,121.69 C420.887,121.858 420.817,122.036 420.596,122.036 C420.375,122.036 420.306,121.888 420.306,121.595 C420.306,121.369 420.287,120.829 420.108,120.438 C419.883,119.865 419.577,119.469 417.954,119.284 C417.419,119.214 414.056,119.144 413.404,119.144 C413.241,119.144 413.176,119.255 413.176,119.469 L413.176,127.593 C413.176,127.829 413.214,127.948 413.404,127.948 C414.112,127.948 417.809,127.948 418.542,127.886 C419.302,127.829 419.781,127.733 420.079,127.409 C420.306,127.153 420.438,126.992 420.596,126.992 C420.722,126.992 420.817,127.049 420.817,127.239 C420.817,127.433 420.689,127.948 420.559,129.58 C420.522,130.225 420.438,131.519 420.438,131.737 C420.438,131.998 420.438,132.364 420.143,132.364 C419.921,132.364 419.855,132.223 419.855,132.063 C419.82,131.737 419.82,131.322 419.724,130.906 C419.577,130.263 419.115,129.777 417.939,129.666 C417.328,129.58 414.13,129.554 413.363,129.554 C413.214,129.554 413.176,129.686 413.176,129.879 L413.176,132.409 C413.176,133.504 413.148,136.458 413.176,137.385 C413.241,139.61 413.766,140.08 417.024,140.08 C417.866,140.08 419.213,140.08 420.052,139.701 C420.887,139.313 421.272,138.646 421.497,137.319 C421.552,136.973 421.616,136.841 421.853,136.841 C422.108,136.841 422.108,137.097 422.108,137.422 C422.108,138.164 421.853,140.356 421.686,140.995 C421.458,141.819 421.168,141.819 419.949,141.819 C417.542,141.819 415.772,141.752 414.403,141.723 C413.02,141.658 412.024,141.628 411.057,141.628 C410.704,141.628 409.999,141.628 409.222,141.658 C408.489,141.658 407.649,141.723 407.013,141.723 C406.6,141.723 406.377,141.628 406.377,141.41 C406.377,141.246 406.495,141.151 406.888,141.151 C407.367,141.151 407.759,141.081 408.042,141.011 C408.689,140.887 408.851,140.187 408.969,139.26 C409.127,137.9 409.127,135.367 409.127,132.409 L409.127,126.761" id="Fill-44" fill="#1A1918" sketch:type="MSShapeGroup"></path>
        </g>
    </g>
</svg>